<svg width="32" height="32" viewBox="0 0 32 32" fill="none" xmlns="http://www.w3.org/2000/svg">
<path d="M2.66943 16.0031C2.67018 19.1782 3.80339 22.2489 5.86538 24.6633C7.92737 27.0777 10.7829 28.6775 13.9188 29.1751V19.8564H10.5361V16.0031H13.9228V13.0698C13.848 12.3832 13.9253 11.6886 14.1492 11.0353C14.3731 10.382 14.7381 9.78602 15.2183 9.28967C15.6985 8.79333 16.2821 8.4088 16.9276 8.1634C17.5731 7.918 18.2648 7.81775 18.9534 7.86977C19.9534 7.88577 20.9534 7.9751 21.9401 8.13643V11.4151H20.2548C19.9683 11.3776 19.6771 11.4049 19.4027 11.4951C19.1282 11.5852 18.8775 11.7359 18.6691 11.936C18.4607 12.1361 18.3 12.3804 18.1987 12.651C18.0974 12.9215 18.0583 13.2114 18.0841 13.4991V16.0031H21.7788L21.1881 19.8578H18.0841V29.1751C20.6009 28.7773 22.9511 27.6667 24.8563 25.9748C26.7615 24.2828 28.1421 22.0804 28.8344 19.6282C29.5268 17.176 29.502 14.5768 28.763 12.1382C28.024 9.69967 26.6017 7.52394 24.6646 5.86862C22.7274 4.21331 20.3565 3.14773 17.8326 2.79804C15.3086 2.44835 12.7373 2.8292 10.4231 3.8955C8.10888 4.9618 6.14865 6.6689 4.77451 8.81467C3.40036 10.9604 2.66984 13.455 2.66943 16.0031V16.0031Z" fill="#17494D"/>
</svg>
