<svg width="161" height="33" viewBox="0 0 161 33" fill="none" xmlns="http://www.w3.org/2000/svg">
<g clip-path="url(#clip0_2597_29608)">
<path d="M66.9728 11.8887C66.5459 11.6143 66.0886 11.4314 65.6007 11.3399C65.1129 11.2484 64.6555 11.1875 64.2286 11.1875C63.5578 11.1875 62.9481 11.279 62.3687 11.4619C61.7894 11.6449 61.2405 11.9497 60.7832 12.3461C60.3258 12.7425 59.9905 13.2913 59.7465 13.9316L61.7284 14.3889C61.8809 13.9925 62.1553 13.6572 62.5822 13.3522C62.9785 13.0474 63.5578 12.8644 64.2591 12.8644C64.9299 12.8644 65.4483 13.0474 65.8142 13.3828C66.1495 13.7181 66.3325 14.206 66.3325 14.8158V14.8768C66.3325 15.1206 66.241 15.3036 66.058 15.4256C65.8751 15.5475 65.5702 15.6085 65.1739 15.6695C64.7775 15.7305 64.2286 15.7915 63.5884 15.8524C63.07 15.9134 62.5822 16.0049 62.0638 16.1268C61.5759 16.2488 61.1186 16.4318 60.7222 16.6452C60.3258 16.8891 59.9905 17.194 59.777 17.5903C59.5331 17.9868 59.4111 18.505 59.4111 19.1149C59.4111 19.8162 59.5636 20.4259 59.899 20.9137C60.2344 21.4016 60.6612 21.7675 61.2101 22.0419C61.7589 22.2858 62.3992 22.4382 63.07 22.4382C63.6798 22.4382 64.1676 22.3468 64.625 22.1638C65.0519 21.9809 65.4178 21.7675 65.6922 21.4931C65.9666 21.2187 66.1801 20.9747 66.302 20.7003H66.3935V22.1943H68.4668V14.9682C68.4668 14.1755 68.3449 13.5352 68.0705 13.0474C67.7656 12.529 67.3996 12.1631 66.9728 11.8887ZM66.3325 18.2612C66.3325 18.688 66.2105 19.0844 65.9971 19.4807C65.7836 19.8466 65.4483 20.1515 65.0519 20.3954C64.625 20.6393 64.1372 20.7308 63.5578 20.7308C62.9481 20.7308 62.4602 20.6088 62.0943 20.3344C61.6979 20.06 61.515 19.6637 61.515 19.1453C61.515 18.7794 61.6065 18.4746 61.8199 18.2306C62.0333 17.9868 62.2772 17.8343 62.6127 17.7123C62.9481 17.5903 63.3139 17.4989 63.7408 17.4379C63.9238 17.4074 64.1372 17.3769 64.3811 17.3465C64.6555 17.3159 64.8994 17.255 65.1739 17.2245C65.4483 17.1635 65.6922 17.133 65.9056 17.0721C66.1191 17.011 66.2715 16.95 66.3325 16.8586V18.2612Z" fill="#17494D"/>
<path d="M75.2665 11.1582C74.6263 11.1582 74.0464 11.3411 73.5585 11.6766C73.0706 12.012 72.7049 12.4693 72.5224 13.0486H72.4002V11.3107H70.3574V22.1651H72.4613V15.5488C72.4613 15.0914 72.5828 14.6645 72.7969 14.2987C73.0103 13.9328 73.3149 13.6279 73.7116 13.4145C74.1075 13.2011 74.5343 13.1096 75.0531 13.1096C75.2665 13.1096 75.4799 13.1401 75.6933 13.1705C75.9067 13.2011 76.059 13.2315 76.1503 13.262V11.2497C76.059 11.2497 75.9067 11.2192 75.7235 11.2192C75.5711 11.1582 75.4188 11.1582 75.2665 11.1582Z" fill="#17494D"/>
<path d="M8.91857 9.69408H0.74707L8.91857 26.7379L21.3892 1.33984L8.91857 9.69408Z" fill="#17494D"/>
<path d="M39.0738 10.1214C39.7446 9.69452 40.4764 9.48111 41.3302 9.48111C41.7875 9.48111 42.2144 9.54205 42.6412 9.66405C43.0681 9.78599 43.434 9.96893 43.7694 10.2433C44.1048 10.4873 44.3792 10.7922 44.6231 11.158C44.867 11.5239 45.0195 11.9203 45.111 12.4081H47.3063C47.1843 11.6154 46.9404 10.9446 46.605 10.3348C46.2696 9.72499 45.8123 9.2067 45.2939 8.77982C44.7756 8.35294 44.1657 8.04806 43.495 7.80412C42.8241 7.59071 42.1229 7.46875 41.3302 7.46875C40.08 7.46875 38.9519 7.77365 37.9762 8.35294C37.0005 8.93229 36.2077 9.78599 35.6589 10.9141C35.0796 12.0117 34.8052 13.3533 34.8052 14.9083C34.8052 16.4633 35.0796 17.7744 35.6589 18.9025C36.2382 20.0001 37.0005 20.8843 37.9762 21.4636C38.9519 22.0429 40.08 22.3479 41.3302 22.3479C42.1229 22.3479 42.8547 22.2259 43.5254 21.982C44.1963 21.738 44.8061 21.4026 45.3244 20.9758C45.8427 20.5489 46.2696 20.0306 46.605 19.4208C46.9404 18.811 47.1843 18.1707 47.2758 17.4694H45.0805C44.989 17.9268 44.8366 18.3536 44.5926 18.6891C44.3487 19.0549 44.0743 19.3293 43.7389 19.5732C43.4035 19.8172 43.0376 20.0001 42.6107 20.122C42.2144 20.244 41.757 20.305 41.2996 20.305C40.4764 20.305 39.7446 20.0916 39.0738 19.6952C38.403 19.2683 37.8847 18.6585 37.5188 17.8658C37.1529 17.0426 36.9395 16.0669 36.9395 14.8778C36.9395 13.7192 37.1225 12.713 37.5188 11.9203C37.9152 11.158 38.4335 10.5482 39.0738 10.1214Z" fill="#17494D"/>
<path d="M9.86377 32.3168L22.3039 23.9626H30.5059L22.3039 6.94922L9.86377 32.3168Z" fill="#17494D"/>
<path d="M56.2399 11.6461C55.691 11.3412 55.0202 11.1888 54.2885 11.1888C53.4347 11.1888 52.7639 11.3717 52.2456 11.7071C51.7272 12.0425 51.3309 12.5303 51.087 13.1096H50.965V7.71289H48.8916V22.1956H50.9955V15.7318C50.9955 15.1524 51.1174 14.6646 51.3309 14.2683C51.5443 13.8719 51.8797 13.5365 52.2456 13.323C52.6419 13.1096 53.0993 13.0182 53.5872 13.0182C54.3189 13.0182 54.8982 13.2316 55.2946 13.6889C55.691 14.1158 55.9045 14.7561 55.9045 15.5488V22.1956H58.0083V15.2744C58.0083 14.3597 57.8559 13.628 57.5509 13.0182C57.2155 12.4083 56.7887 11.951 56.2399 11.6461Z" fill="#17494D"/>
<path d="M160.426 16.6459C160.426 15.6702 160.304 14.8165 160.03 14.1458C159.756 13.4445 159.42 12.8957 158.962 12.4689C158.505 12.042 157.987 11.7066 157.407 11.5236C156.828 11.3102 156.249 11.2188 155.639 11.2188C154.633 11.2188 153.749 11.4627 152.986 11.92C152.224 12.4079 151.645 13.0482 151.218 13.9018C150.791 14.7555 150.608 15.7312 150.608 16.8289C150.608 17.957 150.821 18.9327 151.218 19.7864C151.645 20.6096 152.224 21.2804 152.986 21.7377C153.749 22.1951 154.694 22.4086 155.761 22.4086C156.554 22.4086 157.255 22.2866 157.865 22.0427C158.474 21.7987 158.993 21.4633 159.42 21.006C159.847 20.5486 160.121 20.0608 160.274 19.4511L158.261 19.0852C158.14 19.4205 157.956 19.6949 157.713 19.9389C157.469 20.1827 157.194 20.3352 156.858 20.4572C156.524 20.5792 156.157 20.6401 155.761 20.6401C155.151 20.6401 154.602 20.5182 154.145 20.2437C153.688 19.9693 153.322 19.573 153.078 19.0852C152.834 18.5973 152.712 18.0485 152.712 17.3777H160.426V16.6459ZM152.712 15.7923C152.743 15.3349 152.864 14.8776 153.047 14.4811C153.292 14.0238 153.626 13.6274 154.053 13.353C154.511 13.0482 155.029 12.9262 155.609 12.9262C156.157 12.9262 156.645 13.0482 157.042 13.2921C157.438 13.536 157.773 13.8714 157.987 14.3287C158.2 14.7555 158.322 15.2434 158.322 15.7923H152.712Z" fill="#17494D"/>
<path d="M137.68 15.3351C137.253 15.0302 136.827 14.7558 136.339 14.5729C135.851 14.39 135.394 14.2375 134.906 14.1155L133.503 13.7497C133.229 13.6887 132.924 13.5972 132.619 13.4753C132.314 13.3533 132.04 13.2313 131.765 13.0484C131.491 12.8654 131.277 12.6825 131.125 12.4081C130.973 12.1642 130.881 11.8593 130.881 11.5239C130.881 11.1275 131.003 10.7616 131.247 10.4263C131.491 10.0909 131.826 9.84699 132.253 9.66405C132.68 9.48111 133.199 9.38964 133.808 9.38964C134.631 9.38964 135.333 9.57258 135.882 9.93846C136.431 10.3043 136.735 10.8226 136.827 11.4934H138.93C138.9 10.7007 138.687 10.0299 138.26 9.42011C137.833 8.81029 137.223 8.35294 136.491 7.98706C135.729 7.65171 134.875 7.46875 133.899 7.46875C132.924 7.46875 132.07 7.65171 131.277 7.98706C130.515 8.32247 129.906 8.81029 129.448 9.45058C128.991 10.0604 128.778 10.7922 128.778 11.6459C128.778 12.652 129.112 13.4753 129.783 14.0851C130.454 14.6948 131.369 15.1522 132.528 15.4876L134.235 15.945C134.754 16.0669 135.211 16.2498 135.637 16.4328C136.064 16.6157 136.37 16.8291 136.613 17.1035C136.857 17.3779 136.979 17.7133 136.979 18.1707C136.979 18.628 136.827 19.0549 136.552 19.4208C136.278 19.7562 135.882 20.0306 135.394 20.244C134.906 20.427 134.357 20.5489 133.747 20.5489C133.199 20.5489 132.68 20.4574 132.192 20.305C131.735 20.122 131.338 19.8782 131.034 19.5427C130.728 19.2073 130.576 18.75 130.515 18.2317H128.32C128.381 19.1159 128.624 19.8476 129.051 20.4879C129.509 21.1282 130.119 21.6161 130.912 21.9514C131.704 22.2868 132.65 22.4698 133.717 22.4698C134.845 22.4698 135.821 22.2869 136.613 21.921C137.406 21.5551 138.016 21.0367 138.443 20.427C138.869 19.7867 139.083 19.0549 139.083 18.2317C139.083 17.5914 138.961 17.0121 138.687 16.5548C138.443 16.0364 138.107 15.6401 137.68 15.3351Z" fill="#17494D"/>
<path d="M141.675 7.13281C141.309 7.13281 141.004 7.25477 140.73 7.49869C140.455 7.74264 140.333 8.04751 140.333 8.38293C140.333 8.71827 140.455 9.02322 140.73 9.26709C141.004 9.51103 141.309 9.63297 141.675 9.63297C142.04 9.63297 142.346 9.51103 142.62 9.26709C142.895 9.02322 143.016 8.71827 143.016 8.38293C143.016 8.04751 142.895 7.74264 142.62 7.49869C142.376 7.25477 142.04 7.13281 141.675 7.13281Z" fill="#17494D"/>
<path d="M142.711 11.3105H140.607V22.1649H142.711V11.3105Z" fill="#17494D"/>
<path d="M149.267 20.3964C149.144 20.4269 148.992 20.4269 148.81 20.4269C148.565 20.4269 148.352 20.3964 148.169 20.3354C147.986 20.2744 147.803 20.122 147.681 19.9086C147.559 19.6952 147.498 19.3903 147.498 18.9939V13.0178H149.724V11.3104H147.498V8.71875H145.394V11.3104H143.809V13.0178H145.394V19.4207C145.394 20.061 145.547 20.6099 145.852 21.0672C146.157 21.494 146.523 21.8294 147.01 22.0428C147.498 22.2563 148.016 22.3478 148.565 22.3478C148.901 22.3478 149.175 22.3173 149.419 22.2563C149.632 22.1953 149.816 22.1648 149.938 22.1038L149.541 20.3659C149.511 20.3659 149.389 20.3964 149.267 20.3964Z" fill="#17494D"/>
<path d="M112.861 8.4135C111.885 7.80368 110.757 7.5293 109.507 7.5293C108.257 7.5293 107.129 7.83422 106.153 8.4135C105.178 8.99279 104.385 9.84656 103.836 10.9747C103.256 12.0723 102.982 13.4138 102.982 14.9688C102.982 16.5238 103.256 17.8349 103.836 18.963C104.415 20.0607 105.178 20.9448 106.153 21.5242C107.129 22.1035 108.257 22.4084 109.507 22.4084C110.757 22.4084 111.885 22.1035 112.861 21.5242C113.837 20.9144 114.629 20.0607 115.178 18.963C115.758 17.8654 116.032 16.5238 116.032 14.9688C116.032 13.4138 115.758 12.1028 115.178 10.9747C114.629 9.84656 113.837 8.99279 112.861 8.4135ZM113.288 17.9263C112.922 18.7191 112.403 19.3594 111.733 19.7557C111.093 20.1826 110.33 20.3655 109.507 20.3655C108.684 20.3655 107.922 20.1521 107.282 19.7557C106.641 19.3289 106.092 18.7191 105.726 17.9263C105.36 17.1031 105.147 16.1275 105.147 14.9383C105.147 13.7492 105.33 12.7735 105.726 11.9503C106.123 11.1271 106.641 10.5173 107.282 10.121C107.922 9.69408 108.684 9.48068 109.507 9.48068C110.33 9.48068 111.093 9.69408 111.733 10.121C112.403 10.5478 112.922 11.1576 113.288 11.9503C113.685 12.7431 113.867 13.7492 113.867 14.9383C113.867 16.1275 113.685 17.1031 113.288 17.9263Z" fill="#17494D"/>
<path d="M95.9692 12.4375C95.5122 12.0107 94.9941 11.6753 94.4143 11.4924C93.8351 11.279 93.256 11.1875 92.6459 11.1875C91.64 11.1875 90.7555 11.4314 89.9931 11.8887C89.2307 12.3766 88.6516 13.0169 88.2248 13.8706C87.798 14.7243 87.6147 15.7 87.6147 16.7976C87.6147 17.9257 87.8288 18.9015 88.2248 19.7551C88.6516 20.5784 89.2307 21.2491 89.9931 21.7065C90.7555 22.1638 91.7011 22.3772 92.7681 22.3772C93.5606 22.3772 94.2619 22.2553 94.872 22.0114C95.4813 21.7675 96.0001 21.4321 96.4269 20.9747C96.8537 20.5174 97.1282 20.0296 97.2805 19.4197L95.2679 19.0539C95.1465 19.3893 94.9632 19.6637 94.7196 19.9076C94.4753 20.1515 94.2009 20.304 93.8653 20.4259C93.5305 20.5478 93.164 20.6088 92.7681 20.6088C92.1581 20.6088 91.6091 20.4869 91.1521 20.2125C90.6944 19.9381 90.3287 19.5417 90.0851 19.0539C89.8408 18.566 89.7186 18.0172 89.7186 17.3465H97.4329V16.5842C97.4329 15.6085 97.3114 14.7548 97.0369 14.084C96.7926 13.4437 96.4269 12.8644 95.9692 12.4375ZM89.7495 15.7915C89.7797 15.3341 89.9018 14.8768 90.0851 14.4804C90.3287 14.023 90.6642 13.6267 91.091 13.3522C91.548 13.0474 92.0668 12.9254 92.6459 12.9254C93.1949 12.9254 93.6828 13.0474 94.0794 13.2913C94.4753 13.5352 94.8109 13.8706 95.0243 14.3279C95.2377 14.7548 95.3598 15.2427 95.3598 15.7915H89.7495Z" fill="#17494D"/>
<path d="M84.1087 13.0791H83.9557C83.8343 12.8657 83.6511 12.5913 83.4075 12.2864C83.1632 11.9814 82.8585 11.7376 82.4317 11.4936C82.0049 11.2802 81.4861 11.1582 80.7848 11.1582C79.901 11.1582 79.1386 11.3717 78.4373 11.829C77.736 12.2558 77.218 12.8961 76.8213 13.7194C76.4247 14.5426 76.2422 15.5488 76.2422 16.6769C76.2422 17.805 76.4247 18.8112 76.8213 19.6039C77.218 20.3967 77.7662 20.976 78.4373 21.4028C79.1386 21.7992 79.901 22.0126 80.7546 22.0126C81.425 22.0126 81.974 21.9211 82.3706 21.7077C82.7974 21.4943 83.1021 21.2504 83.3464 20.976C83.59 20.7016 83.7732 20.4271 83.8953 20.2137H84.0168V22.348C84.0168 23.2017 83.7423 23.8115 83.2242 24.2079C82.7062 24.6043 82.0351 24.7872 81.2425 24.7872C80.6634 24.7872 80.1755 24.6958 79.809 24.5433C79.4433 24.3908 79.1386 24.1774 78.9252 23.9335C78.7118 23.6896 78.5286 23.4761 78.4065 23.2627L76.5771 24.0249C76.7603 24.4823 77.0649 24.8787 77.4616 25.2446C77.8582 25.6105 78.3461 25.9153 78.9863 26.1288C79.5956 26.3422 80.358 26.4642 81.2116 26.4642C82.1263 26.4642 82.9806 26.3117 83.7121 26.0373C84.4436 25.7629 85.0536 25.3055 85.4805 24.6958C85.9073 24.0859 86.1207 23.3237 86.1207 22.409V11.3107H84.0477V13.0791H84.1087ZM83.7423 18.5977C83.5289 19.1161 83.1941 19.543 82.7672 19.8174C82.3397 20.0917 81.8217 20.2442 81.2116 20.2442C80.5714 20.2442 80.0533 20.0917 79.6265 19.7869C79.1997 19.482 78.8943 19.0551 78.6507 18.5368C78.4373 17.988 78.3152 17.3782 78.3152 16.6769C78.3152 15.9756 78.4065 15.3658 78.6199 14.7865C78.834 14.2377 79.1688 13.7804 79.5956 13.445C80.0224 13.1096 80.5412 12.9571 81.1814 12.9571C81.7915 12.9571 82.3095 13.1096 82.7364 13.445C83.1632 13.7499 83.4678 14.1767 83.6819 14.756C83.8953 15.3048 84.0168 15.9451 84.0168 16.6769C84.0779 17.4392 83.9866 18.0795 83.7423 18.5977Z" fill="#17494D"/>
<path d="M124.996 11.6449C124.447 11.3399 123.776 11.1875 123.045 11.1875C122.221 11.1875 121.551 11.3704 121.002 11.7058C120.483 12.0412 120.087 12.529 119.813 13.0778H119.691V11.3094H117.648V22.1638H119.752V15.7305C119.752 15.1512 119.874 14.6633 120.087 14.2669C120.301 13.8706 120.605 13.5352 120.971 13.3218C121.368 13.1084 121.795 13.0169 122.283 13.0169C123.015 13.0169 123.563 13.2303 123.96 13.6877C124.356 14.145 124.57 14.7548 124.57 15.5475V22.1943H126.673V15.2731C126.673 14.3889 126.52 13.6267 126.216 13.0169C126.002 12.4071 125.545 11.9497 124.996 11.6449Z" fill="#17494D"/>
</g>
<defs>
<clipPath id="clip0_2597_29608">
<rect width="159.884" height="31.5651" fill="white" transform="translate(0.561523 0.753906)"/>
</clipPath>
</defs>
</svg>
