<svg width="222" height="23" viewBox="0 0 222 23" fill="none" xmlns="http://www.w3.org/2000/svg">
<g clip-path="url(#clip0_2597_29593)">
<path d="M35.8463 4.01172C37.3105 4.01172 38.5011 4.33709 39.418 4.98784C40.335 5.62382 40.7935 6.70347 40.7935 8.22677C40.7935 8.78882 40.6604 9.29907 40.3942 9.75753C40.1427 10.2012 39.81 10.5857 39.3958 10.9111C40.0762 11.2661 40.6308 11.7468 41.0597 12.3531C41.5034 12.9595 41.7252 13.7286 41.7252 14.6604C41.7252 16.0506 41.2372 17.1376 40.2611 17.9215C39.2997 18.7053 38.013 19.0973 36.4009 19.0973H30.2114V4.01172H35.8463ZM35.4248 6.40764H33.0732V10.1568H35.203C36.0016 10.1568 36.6228 10.009 37.0664 9.71315C37.5249 9.4026 37.7542 8.92192 37.7542 8.27116C37.7542 7.56125 37.5471 7.07321 37.133 6.807C36.7189 6.54074 36.1495 6.40764 35.4248 6.40764ZM36.3787 12.4862H33.0732V16.7235H36.1791C36.9481 16.7235 37.5619 16.546 38.0204 16.1911C38.4937 15.8361 38.7303 15.3333 38.7303 14.6825C38.7303 13.9726 38.5158 13.4328 38.0869 13.063C37.6581 12.6785 37.0887 12.4862 36.3787 12.4862Z" fill="#17494D"/>
<path d="M51.2953 6.40764H49.5205V11.022H51.3396C52.1975 11.022 52.9075 10.8519 53.4696 10.5118C54.0316 10.1568 54.3121 9.58004 54.3121 8.78141C54.3121 7.9384 54.0463 7.33202 53.5137 6.96228C52.9811 6.59253 52.2418 6.40764 51.2953 6.40764ZM55.4215 19.0973L52.227 13.3293C52.0644 13.3441 51.8943 13.3588 51.7168 13.3736C51.5393 13.3736 51.3618 13.3736 51.1844 13.3736H49.5205V19.0973H46.6587V4.01172H51.384C53.0257 4.01172 54.4308 4.38886 55.599 5.14313C56.7673 5.89743 57.3519 7.06581 57.3519 8.64831C57.3519 9.58004 57.1076 10.3861 56.6197 11.0664C56.1464 11.7319 55.5323 12.2496 54.778 12.6193L58.4833 19.0973H55.4215Z" fill="#17494D"/>
<path d="M73.1236 19.0973H62.564V4.01172H71.5709L72.0142 6.27453H65.4257V10.3343H69.4629L69.9289 12.6193H65.4257V16.8566H72.6577L73.1236 19.0973Z" fill="#17494D"/>
<path d="M82.7316 7.96056L80.7571 13.2183H84.7502L82.7316 7.96056ZM84.018 4.01172L89.8748 18.6979L86.9911 19.0973L85.6374 15.5477H79.914L78.583 19.0973H75.6992L81.5781 4.01172H84.018Z" fill="#17494D"/>
<path d="M96.4717 4.01051V10.3331L102.129 3.67773L104.258 5.3194L99.7772 10.5106L106.078 19.0961H102.506L97.8915 12.7069L96.4717 14.3707V19.0961H93.5879V4.01051H96.4717Z" fill="#17494D"/>
<path d="M112.795 4.01172V19.0973H109.933V4.01172H112.795Z" fill="#17494D"/>
<path d="M131.25 4.01172V19.0973H128.366L121.378 9.00324V19.0973H118.516V4.01172H121.378L128.366 14.0836V4.01172H131.25Z" fill="#17494D"/>
<path d="M142.634 10.8446H148.136V18.2987C147.559 18.6092 146.864 18.8754 146.051 19.0973C145.238 19.3044 144.365 19.4079 143.433 19.4079C141.082 19.4079 139.314 18.6536 138.131 17.1451C136.963 15.6217 136.378 13.7804 136.378 11.6211C136.378 9.32868 137.044 7.43559 138.375 5.94181C139.706 4.44805 141.51 3.70117 143.788 3.70117C144.232 3.70117 144.861 3.77512 145.674 3.92302C146.502 4.07091 147.249 4.32234 147.915 4.67729L147.005 6.74044C146.354 6.54818 145.822 6.40032 145.408 6.29679C145.008 6.17844 144.483 6.1193 143.833 6.1193C142.502 6.1193 141.422 6.57776 140.594 7.49473C139.78 8.39689 139.374 9.76498 139.374 11.5989C139.374 13.2553 139.706 14.5716 140.372 15.5477C141.052 16.5091 142.05 16.9897 143.367 16.9897C143.855 16.9897 144.276 16.9676 144.631 16.9232C144.986 16.864 145.297 16.8049 145.563 16.7457V13.0631H142.391L142.634 10.8446Z" fill="#17494D"/>
<path d="M167.25 14.5272L163.634 9.89064V19.0973H160.772V4.01172H162.591L167.694 10.9777L172.331 4.01172H174.083V19.0973H171.177V10.4009L168.36 14.3719L167.25 14.5272Z" fill="#17494D"/>
<path d="M185.078 7.96056L183.103 13.2183H187.096L185.078 7.96056ZM186.364 4.01172L192.221 18.6979L189.337 19.0973L187.984 15.5477H182.26L180.929 19.0973H178.045L183.924 4.01172H186.364Z" fill="#17494D"/>
<path d="M200.859 6.40764H199.084V11.022H200.903C201.761 11.022 202.471 10.8519 203.033 10.5118C203.595 10.1568 203.876 9.58004 203.876 8.78141C203.876 7.9384 203.61 7.33202 203.078 6.96228C202.545 6.59253 201.806 6.40764 200.859 6.40764ZM204.985 19.0973L201.791 13.3293C201.628 13.3441 201.458 13.3588 201.281 13.3736C201.103 13.3736 200.926 13.3736 200.748 13.3736H199.084V19.0973H196.223V4.01172H200.948C202.59 4.01172 203.995 4.38886 205.163 5.14313C206.332 5.89743 206.916 7.06581 206.916 8.64831C206.916 9.58004 206.671 10.3861 206.183 11.0664C205.71 11.7319 205.097 12.2496 204.342 12.6193L208.047 19.0973H204.985Z" fill="#17494D"/>
<path d="M212.106 15.7691C212.564 16.0057 213.149 16.2423 213.858 16.479C214.569 16.7156 215.241 16.8339 215.877 16.8339C216.779 16.8339 217.452 16.6934 217.896 16.4124C218.355 16.1314 218.584 15.7247 218.584 15.1923C218.584 14.6894 218.281 14.2457 217.674 13.8612C217.083 13.4618 216.424 13.0773 215.7 12.7075C214.635 12.1604 213.615 11.5244 212.638 10.7997C211.677 10.0602 211.196 9.02494 211.196 7.69384C211.196 6.55504 211.648 5.60108 212.549 4.83203C213.452 4.04818 214.731 3.65625 216.388 3.65625C217.142 3.65625 217.896 3.77457 218.65 4.01121C219.405 4.24784 220.07 4.50666 220.647 4.78766L219.693 7.09487C219.235 6.87304 218.739 6.66598 218.207 6.47367C217.674 6.26666 217.083 6.16313 216.432 6.16313C215.796 6.16313 215.256 6.28883 214.812 6.54023C214.384 6.79168 214.169 7.17623 214.169 7.69384C214.169 8.24107 214.428 8.69953 214.946 9.06927C215.478 9.42425 216.114 9.78659 216.854 10.1563L217.008 10.2451C218.074 10.7923 219.094 11.443 220.07 12.1973C221.061 12.9368 221.556 13.9499 221.556 15.2366C221.556 16.4346 221.068 17.4255 220.092 18.2093C219.131 18.9932 217.741 19.3851 215.922 19.3851C215.286 19.3851 214.465 19.2446 213.459 18.9636C212.468 18.6826 211.802 18.3942 211.463 18.0984L212.106 15.7691Z" fill="#17494D"/>
<path d="M11.3806 22.9028C17.663 22.9028 22.7558 17.8099 22.7558 11.5276C22.7558 5.2452 17.663 0.152344 11.3806 0.152344C5.09823 0.152344 0.00537109 5.2452 0.00537109 11.5276C0.00537109 17.8099 5.09823 22.9028 11.3806 22.9028Z" fill="#17494D"/>
<path fill-rule="evenodd" clip-rule="evenodd" d="M2.88135 3.87829C3.57105 3.63531 4.33224 3.51382 5.16493 3.51382C6.65621 3.51382 7.89492 3.90077 8.88112 4.67467C9.86728 5.42509 10.5528 6.43352 10.9376 7.69991C11.2503 6.26937 11.9839 5.12025 13.1384 4.25254C14.2689 3.38483 15.5678 2.95098 17.035 2.95098C17.7228 2.95098 18.6936 3.05203 19.2899 3.20554C17.2767 1.31736 14.2401 0.136719 11.2622 0.136719C7.93347 0.136719 4.94223 1.58155 2.88135 3.87829ZM8.84504 12.6951V16.635H3.54136V12.6951C3.54136 11.7101 3.76987 10.9597 4.22687 10.4437C4.68387 9.90438 5.34533 9.63465 6.21125 9.63465C7.07712 9.63465 7.7386 9.90438 8.19559 10.4437C8.62857 10.9597 8.84504 11.7101 8.84504 12.6951ZM18.2617 9.8809C18.7187 10.4203 18.9473 11.1942 18.9473 12.2026V16.635H13.355V12.273C13.355 11.2645 13.6075 10.4789 14.1126 9.9161C14.6177 9.32979 15.3152 9.03668 16.2052 9.03668C17.0952 9.03668 17.7807 9.31807 18.2617 9.8809Z" fill="white"/>
</g>
<defs>
<clipPath id="clip0_2597_29593">
<rect width="221.561" height="22.797" fill="white" transform="translate(0 0.136719)"/>
</clipPath>
</defs>
</svg>
