<svg width="27" height="28" viewBox="0 0 27 28" fill="none" xmlns="http://www.w3.org/2000/svg">
<circle cx="13.3333" cy="13.9993" r="13.3333" fill="#17494D"/>
<path fill-rule="evenodd" clip-rule="evenodd" d="M11.2383 10.2268H14.0238V11.6143C14.425 10.8163 15.454 10.0993 16.9998 10.0993C19.963 10.0993 20.6665 11.6878 20.6665 14.6023V20H17.6665V15.266C17.6665 13.6062 17.2653 12.6702 16.2438 12.6702C14.827 12.6702 14.2383 13.679 14.2383 15.2653V20H11.2383V10.2268ZM6.094 19.8725H9.094V10.0993H6.094V19.8725ZM9.52375 6.9125C9.52387 7.16396 9.474 7.41293 9.37704 7.64494C9.28009 7.87695 9.13799 8.08738 8.959 8.264C8.5963 8.62447 8.10536 8.82624 7.594 8.825C7.08355 8.82466 6.59374 8.6234 6.2305 8.26475C6.05216 8.08753 5.91054 7.87687 5.81376 7.64482C5.71698 7.41278 5.66694 7.16392 5.6665 6.9125C5.6665 6.40475 5.869 5.91875 6.23125 5.56025C6.59417 5.20112 7.08418 4.99978 7.59475 5C8.10625 5 8.59675 5.20175 8.959 5.56025C9.3205 5.91875 9.52375 6.40475 9.52375 6.9125Z" fill="#F8F4EC"/>
</svg>
