<svg width="172" height="31" viewBox="0 0 172 31" fill="none" xmlns="http://www.w3.org/2000/svg">
<path d="M29.6073 24.6081C29.1824 24.2452 28.4758 23.673 28.3735 23.5759C28.3427 23.5503 28.3324 23.5299 28.353 23.5043C28.6806 23.0853 28.952 22.7378 29.2387 22.3853C29.2899 22.324 29.3411 22.3546 29.4026 22.4108C29.7251 22.6919 30.447 23.2693 30.5494 23.3817C30.575 23.4124 30.575 23.4226 30.534 23.4788C30.4316 23.6168 29.8992 24.3424 29.6893 24.6183C29.6688 24.6438 29.6432 24.6285 29.6073 24.6081Z" fill="#17494D"/>
<path d="M22.6191 15.3933C22.1941 15.0304 21.4926 14.4581 21.3851 14.3611C21.3544 14.3355 21.3442 14.3151 21.3646 14.2895C21.6924 13.8705 21.9637 13.523 22.2504 13.1705C22.3016 13.1091 22.3528 13.1398 22.4142 13.196C22.7368 13.4771 23.4587 14.0545 23.5611 14.1669C23.5867 14.1976 23.5867 14.2077 23.5458 14.2639C23.4434 14.4019 22.9109 15.1276 22.701 15.4035C22.6804 15.429 22.6548 15.4137 22.6191 15.3933Z" fill="#17494D"/>
<path d="M14.099 25.8698C13.6741 25.507 12.9726 24.9347 12.8651 24.8376C12.8344 24.8121 12.8242 24.7916 12.8446 24.7661C13.1723 24.3471 13.4436 23.9996 13.7303 23.647C13.7816 23.5857 13.8328 23.6164 13.8942 23.6726C14.2168 23.9536 14.9387 24.531 15.0411 24.6435C15.0667 24.6741 15.0667 24.6843 15.0257 24.7405C14.9233 24.8785 14.3908 25.6041 14.1809 25.88C14.1604 25.9056 14.1348 25.8954 14.099 25.8698Z" fill="#17494D"/>
<path d="M16.3465 25.7526C15.9216 25.3898 15.2202 24.8175 15.1127 24.7205C15.0819 24.6949 15.0717 24.6744 15.0922 24.6489C15.4198 24.2299 15.6912 23.8824 15.9779 23.5298C16.0291 23.4685 16.0803 23.4992 16.1418 23.5554C16.4643 23.8364 17.1863 24.4138 17.2887 24.5262C17.3143 24.5569 17.3143 24.5671 17.2732 24.6233C17.1709 24.7613 16.6384 25.487 16.4285 25.7629C16.408 25.7884 16.3824 25.7782 16.3465 25.7526Z" fill="#17494D"/>
<path d="M38.6388 16.0687C38.6081 16.0483 38.4852 15.9767 38.0448 15.9666C30.3344 15.7519 29.5868 13.4218 27.2573 13.2992C25.0045 13.1817 23.6324 15.4863 23.2023 16.8352C23.1972 16.8557 23.1716 16.8608 23.1562 16.8404C22.593 16.0892 21.6407 15.6038 20.8523 15.011C19.7464 14.173 18.9989 13.4473 18.963 12.6757C18.963 12.6604 18.9733 12.6502 18.9886 12.6502C19.3573 12.6145 19.731 12.5889 20.0996 12.5889C21.4769 12.5787 24.1495 12.9312 24.2775 12.9568C24.3185 12.9619 24.3748 12.8649 24.3748 12.8649L25.1735 11.5056C25.1735 11.5056 25.194 11.4647 25.1786 11.4544C25.1479 11.434 25.0198 11.3881 24.5847 11.3523C22.6084 11.199 20.2123 10.9844 18.9733 10.6982C16.613 10.1566 15.1488 9.0426 13.4029 8.93528C10.6586 8.76667 9.29159 12.4611 9.26091 12.87C9.25065 12.9824 9.394 12.9721 9.42987 12.9159C9.76261 12.4049 10.72 10.5347 12.8192 10.5449C13.966 10.55 16.1267 11.48 16.7359 11.6027C16.7666 11.6078 16.7666 11.6589 16.7359 11.6691C16.1061 11.8633 12.4967 13.013 11.2986 13.9737C10.9556 14.2496 10.6177 15.2001 10.505 15.5731C10.4897 15.6242 10.546 15.6702 10.5921 15.6395C10.6228 15.6242 10.6586 15.5987 10.6945 15.5782C10.6893 15.5833 10.6893 15.5936 10.6842 15.5987C11.6007 16.0483 13.4746 16.2528 14.3757 16.4315C15.2153 16.5951 15.4406 17.0141 15.4764 17.1061C15.4815 17.1163 15.4764 17.1265 15.4662 17.1368C14.6009 17.7959 10.9044 19.8706 8.25226 19.9318C8.21642 19.9318 8.18058 19.9318 8.14474 19.9318C8.11914 19.9318 8.10378 19.9063 8.11402 19.8859C8.31882 19.3084 8.63113 18.6595 9.06634 17.939C9.27625 17.5966 9.3684 17.3207 9.3172 17.2849C9.21996 17.2083 8.96393 17.6017 8.84105 17.7909C8.3649 18.5318 8.02186 19.2318 7.78635 19.8859C7.78123 19.9063 7.76075 19.9166 7.74027 19.9166C6.06094 19.7735 4.82194 18.7464 4.51474 17.0959C4.27923 15.8133 4.76562 14.4744 5.01649 13.9482C5.14449 13.662 5.30833 13.3042 5.21617 13.2276C5.14961 13.1663 4.91409 13.4372 4.7093 13.8562C3.82868 15.6446 3.87988 17.193 3.87988 17.193C3.82868 18.7974 4.57107 21.2605 7.37164 21.5313C7.39723 21.5313 7.4126 21.5568 7.4126 21.5773C7.26412 23.6314 8.38538 24.8732 9.6602 24.8323C10.1159 24.817 10.5562 24.6126 10.9402 24.3112C11.1859 24.122 12.9369 22.4102 13.4643 21.9861C14.4269 21.0714 17.6984 20.1873 18.7173 19.7888C18.748 19.7735 18.7838 19.8093 18.7685 19.8399C18.5893 20.2436 18.3999 20.8006 18.277 21.3678C18.1029 22.1343 17.6165 26.2376 21.139 26.0383C22.3115 25.9718 23.5965 25.3076 24.5488 24.725C26.1616 23.7388 27.9536 21.9861 28.2608 21.4189C28.5219 20.9385 28.7472 20.0801 28.8188 19.5282C28.824 19.5027 28.824 19.4822 28.824 19.4566C28.824 19.4464 28.8291 19.4362 28.8393 19.4362C29.0646 19.3442 29.3564 19.2216 29.7045 19.0632C31.1637 18.3989 32.9967 17.3411 34.9883 17.3718C35.1316 17.382 35.275 17.3871 35.4081 17.3973C35.4389 17.3973 35.4645 17.4024 35.4952 17.4024C37.3179 17.5148 37.6302 17.5506 37.7377 17.571C37.7786 17.5762 37.8349 17.4791 37.8349 17.4791L38.6337 16.1198C38.6337 16.1148 38.6541 16.0739 38.6388 16.0687ZM20.6577 16.779C20.6577 16.7586 20.6833 16.7433 20.6987 16.7586C20.8011 16.8455 21.0725 17.0754 21.3745 17.3054C21.6663 17.5251 23.1152 18.4602 22.9771 19.1603C22.8951 19.5742 21.4052 18.9304 20.2891 18.4756C20.2738 18.4705 20.2686 18.4551 20.2789 18.4398C20.6372 17.7244 20.6628 16.9886 20.6577 16.779ZM19.0705 15.4863C19.7361 15.6293 20.1765 16.8199 20.1304 17.1265C20.0946 17.3616 19.5774 18.0208 19.086 18.0668H19.0808C18.5586 18.0054 17.4066 17.4586 17.4937 16.9425C17.6012 16.3242 18.7122 15.4095 19.0705 15.4863ZM13.4285 20.5144C12.2356 21.3422 10.8071 23.1767 9.53736 23.3504C8.58505 23.4782 7.79658 22.8855 7.77611 21.6029C7.77611 21.5824 7.79658 21.5619 7.81707 21.5619C7.90923 21.5619 8.0065 21.5619 8.10378 21.5568C10.29 21.4802 13.5565 19.6049 14.2733 19.1245C14.9849 18.6493 15.4559 18.3223 15.7119 17.9543C15.8655 17.7397 16.1829 17.0345 16.1829 16.3549C16.2188 15.057 14.862 14.9191 14.2067 14.8066C14.0634 14.781 13.3363 14.6891 12.7066 14.5716C12.681 14.5664 12.6758 14.5358 12.7014 14.5255C14.2477 13.8 16.4185 12.967 18.6559 12.6808C18.6763 12.6808 18.6917 12.6962 18.6815 12.7166C18.533 13.0846 18.4767 13.708 18.5688 14.3365C18.5688 14.3467 18.5688 14.3518 18.5586 14.3569C17.7292 15.057 17.2889 15.8542 17.0534 16.6155C16.8332 17.3207 16.8792 18.0616 17.0738 18.5675C17.1096 18.6595 17.1608 18.7412 17.2274 18.823C17.2377 18.8384 17.2377 18.8537 17.2171 18.8639C16.8332 19.007 14.6624 19.6611 13.4285 20.5144ZM28.5833 18.0157C28.5629 18.0208 28.5423 18.0157 28.5373 17.9952C28.3939 17.6733 27.6208 16.1198 26.4278 16.1556C25.5574 16.1863 24.641 17.1317 24.4516 18.2609C24.2877 19.2369 24.6563 19.7632 25.1018 20.0392C25.8697 20.5196 27.5081 19.9318 27.9638 19.7939C27.9741 19.7888 27.9894 19.7939 27.9945 19.8041C28.0713 19.9421 28.1686 20.1363 28.2096 20.2998C28.2198 20.3407 28.2044 20.3816 28.1788 20.4123C27.7642 20.8159 24.5642 23.749 22.0504 24.26C19.475 24.7812 18.5483 23.1614 18.6866 21.5619C18.7071 21.3474 18.7429 21.0101 18.7993 20.8057C18.8402 20.591 18.9477 20.2334 19.0757 19.8808C19.086 19.8552 19.1167 19.8399 19.1423 19.8501C20.5093 20.3458 21.9736 21.1481 22.5418 20.7648C23.4532 20.1465 23.9754 18.2456 23.3354 17.0907C23.3303 17.0806 23.3303 17.0703 23.3354 17.0652C23.7963 16.4469 24.8663 14.9344 26.4586 14.8781C28.0253 14.8271 29.8838 16.2067 31.6399 16.6666C31.6809 16.6769 31.686 16.7331 31.645 16.7484C31.1996 16.9425 29.8019 17.5711 28.5833 18.0157ZM27.0218 18.4602C27.0319 18.4705 27.0269 18.4857 27.0115 18.4909C26.8784 18.5113 26.3664 18.5777 25.9364 18.5471C25.665 18.5267 25.5011 18.4653 25.3475 18.3375C25.3117 18.3069 25.3117 18.2609 25.3322 18.2251C25.4192 18.0872 25.6752 17.7755 25.9773 17.7755C26.4176 17.7703 26.9194 18.3325 27.0218 18.4602Z" fill="#17494D"/>
<path d="M20.7497 29.6444C15.4558 29.6444 10.4792 28.183 6.7366 25.5207C4.91391 24.2279 3.48035 22.7205 2.48198 21.0393C1.44776 19.2968 0.92041 17.447 0.92041 15.541C0.92041 13.635 1.44776 11.7852 2.48198 10.0426C3.48035 8.36152 4.91391 6.85402 6.7366 5.56123C10.4792 2.90406 15.4558 1.4375 20.7497 1.4375C26.0437 1.4375 31.0202 2.89894 34.7628 5.56123C36.5855 6.85402 38.0191 8.36152 39.0174 10.0426C40.0568 11.7852 40.579 13.635 40.579 15.541C40.579 17.447 40.0517 19.2968 39.0174 21.0393C38.0191 22.7205 36.5855 24.2279 34.7628 25.5207C31.0202 28.1779 26.0437 29.6444 20.7497 29.6444ZM20.7497 1.59591C15.4865 1.59591 10.5458 3.04713 6.82364 5.68898C3.11684 8.32057 1.07401 11.821 1.07401 15.541C1.07401 19.261 3.11684 22.7613 6.82876 25.393C10.5458 28.0348 15.4916 29.486 20.7548 29.486C26.0181 29.486 30.9588 28.0348 34.6809 25.393C38.3928 22.7613 40.4357 19.261 40.4357 15.541C40.4357 11.821 38.3877 8.32057 34.6758 5.68898C30.9588 3.04713 26.013 1.59591 20.7497 1.59591Z" fill="#17494D"/>
<path d="M20.7499 30.4474C15.2613 30.4474 10.0954 28.9042 6.2094 26.104C4.30993 24.7396 2.82004 23.1453 1.78071 21.367C0.695288 19.5274 0.147461 17.5652 0.147461 15.5417C0.147461 13.5181 0.695288 11.5559 1.78071 9.71121C2.82516 7.93813 4.31505 6.34378 6.2094 4.97432C10.0954 2.17407 15.2613 0.630859 20.7499 0.630859C26.2384 0.630859 31.4043 2.17407 35.2903 4.97432C37.1898 6.33867 38.6797 7.93295 39.719 9.71121C40.8045 11.5559 41.3523 13.5181 41.3523 15.5417C41.3523 17.5652 40.8045 19.5274 39.719 21.3721C38.6745 23.1453 37.1847 24.7396 35.2903 26.1091C31.4043 28.9093 26.2435 30.4474 20.7499 30.4474ZM20.7499 1.09587C9.64486 1.09587 0.60825 7.5753 0.60825 15.5417C0.60825 23.5081 9.64486 29.9875 20.7499 29.9875C31.8549 29.9875 40.8915 23.5081 40.8915 15.5417C40.8966 7.5753 31.86 1.09587 20.7499 1.09587Z" fill="#17494D"/>
<path d="M20.54 21.8732C20.5501 21.8426 20.5604 21.8273 20.5656 21.8119C20.5809 21.7915 20.7243 21.771 20.8164 21.8732C20.8983 21.9652 20.9393 22.1236 20.9342 22.2974C20.9188 22.466 20.8881 22.6193 20.8215 22.7981C20.7499 22.9974 20.7089 23.0996 20.6525 23.258C20.6219 23.3347 20.5144 23.6157 20.5194 23.7282C20.5194 23.7434 20.5604 23.6668 20.5656 23.6566C20.7038 23.3755 20.7652 23.212 20.9239 22.8901C21.0826 22.5631 21.2004 22.2616 21.2106 21.8885C21.226 21.6586 21.0878 21.2856 20.8523 21.2754C20.7294 21.2754 20.586 21.4287 20.4938 21.6484C20.4068 21.8528 20.3556 22.144 20.3505 22.3178C20.3402 22.3587 20.5348 21.8936 20.54 21.8732Z" fill="#17494D"/>
<path d="M16.7309 22.4254C16.7207 22.456 16.7105 22.4713 16.7053 22.4866C16.69 22.5071 16.5466 22.5275 16.4545 22.4254C16.3726 22.3334 16.3316 22.1749 16.3367 22.0012C16.352 21.8325 16.3828 21.6793 16.4494 21.5004C16.521 21.3011 16.5619 21.199 16.6183 21.0405C16.649 20.9639 16.7565 20.6828 16.7514 20.5704C16.7514 20.555 16.7105 20.6318 16.7053 20.6419C16.5671 20.923 16.5057 21.0865 16.347 21.4084C16.1883 21.7355 16.0705 22.0369 16.0602 22.41C16.0449 22.6399 16.1831 23.013 16.4186 23.0232C16.5415 23.0232 16.6849 22.8699 16.777 22.6502C16.8641 22.4458 16.9152 22.1545 16.9204 21.9807C16.9306 21.9399 16.7361 22.4048 16.7309 22.4254Z" fill="#17494D"/>
<path d="M24.4773 22.0366C24.467 22.0673 24.4568 22.0825 24.4517 22.0979C24.4363 22.1183 24.293 22.1388 24.2008 22.0366C24.1188 21.9446 24.0779 21.7862 24.0831 21.6125C24.0984 21.4439 24.1291 21.2905 24.1957 21.1117C24.2674 20.9124 24.3083 20.8102 24.3646 20.6518C24.3954 20.5751 24.5029 20.2941 24.5029 20.1817C24.5029 20.1664 24.4619 20.243 24.4568 20.2533C24.3186 20.5343 24.2571 20.6978 24.0984 21.0197C23.9397 21.3467 23.8219 21.6483 23.8117 22.0213C23.7964 22.2512 23.9345 22.6242 24.1701 22.6345C24.293 22.6345 24.4363 22.4811 24.5285 22.2614C24.6155 22.057 24.6667 21.7658 24.6719 21.5921C24.6769 21.5511 24.4824 22.0162 24.4773 22.0366Z" fill="#17494D"/>
<path d="M6.41405 16.9936C6.40382 17.0243 6.39358 17.0397 6.38846 17.055C6.3731 17.0754 6.22974 17.0959 6.13758 16.9936C6.05567 16.9017 6.0147 16.7433 6.01982 16.5695C6.03518 16.4009 6.0659 16.2476 6.13247 16.0688C6.20414 15.8695 6.2451 15.7672 6.30142 15.6089C6.33214 15.5323 6.43965 15.2511 6.43453 15.1387C6.43453 15.1234 6.39358 15.2 6.38846 15.2103C6.25022 15.4913 6.18878 15.6548 6.03006 15.9768C5.87134 16.3038 5.75359 16.6053 5.74335 16.9784C5.72799 17.2083 5.86622 17.5814 6.10174 17.5915C6.22462 17.5915 6.36798 17.4383 6.46014 17.2185C6.54718 17.0141 6.59837 16.7229 6.60349 16.5491C6.61374 16.5082 6.41917 16.9784 6.41405 16.9936Z" fill="#17494D"/>
<path d="M11.5904 18.1128C11.5801 18.1435 11.5699 18.1588 11.5648 18.1741C11.5494 18.1946 11.4061 18.215 11.3139 18.1128C11.2319 18.0208 11.191 17.8624 11.1962 17.6887C11.2115 17.52 11.2422 17.3667 11.3087 17.1879C11.3805 16.9886 11.4214 16.8864 11.4777 16.7279C11.5085 16.6513 11.616 16.3703 11.6108 16.2579C11.6108 16.2425 11.5699 16.3192 11.5648 16.3294C11.4265 16.6104 11.3651 16.774 11.2063 17.0959C11.0476 17.4229 10.9299 17.7244 10.9196 18.0974C10.9043 18.3274 11.0425 18.7004 11.2781 18.7107C11.4009 18.7107 11.5443 18.5573 11.6364 18.3376C11.7235 18.1332 11.7747 17.8419 11.7798 17.6682C11.79 17.6325 11.6006 18.0974 11.5904 18.1128Z" fill="#17494D"/>
<path d="M34.0152 21.8994C33.9845 21.976 33.9742 22.0118 33.9486 22.0476C33.9077 22.0987 33.5749 22.1446 33.3701 21.9095C33.1806 21.695 33.0885 21.3271 33.0937 20.9285C33.1243 20.5401 33.2011 20.1824 33.3548 19.7736C33.5237 19.3188 33.6107 19.0736 33.749 18.7057C33.8155 18.5268 34.0664 17.8778 34.0613 17.6172C34.0613 17.5764 33.9691 17.7603 33.9589 17.7858C33.6466 18.4399 33.4929 18.8181 33.1346 19.559C32.7711 20.3102 32.4997 21.0154 32.4793 21.8687C32.4434 22.395 32.766 23.2586 33.3086 23.279C33.5954 23.2842 33.923 22.9265 34.1329 22.4155C34.3327 21.9351 34.4555 21.2657 34.4658 20.8672C34.476 20.7803 34.0306 21.8585 34.0152 21.8994Z" fill="#17494D"/>
<path d="M30.4469 20.2526C30.4623 20.2117 30.4725 20.1913 30.4828 20.1708C30.5084 20.1402 30.6927 20.1197 30.8105 20.2475C30.918 20.3701 30.9692 20.5745 30.9641 20.7993C30.9436 21.0191 30.9026 21.2184 30.8156 21.4483C30.7183 21.7039 30.6722 21.8418 30.5954 22.0512C30.5596 22.1535 30.4163 22.5163 30.4213 22.6645C30.4213 22.69 30.4725 22.5828 30.4776 22.5674C30.6569 22.1995 30.7387 21.9849 30.9436 21.5709C31.1484 21.1468 31.302 20.7534 31.3122 20.2679C31.3327 19.9715 31.1484 19.4861 30.8463 19.4708C30.6825 19.4656 30.4982 19.67 30.3804 19.9562C30.2677 20.227 30.2012 20.6051 30.1909 20.8249C30.1909 20.8811 30.4419 20.2782 30.4469 20.2526Z" fill="#17494D"/>
<path d="M6.19397 12.0202C6.16325 12.0867 6.14789 12.1173 6.12229 12.148C6.08133 12.1939 5.77926 12.1991 5.61542 11.9691C5.46183 11.7596 5.41063 11.4172 5.4567 11.0596C5.52326 10.7121 5.62054 10.3952 5.79462 10.0427C5.98917 9.64924 6.08645 9.4346 6.24516 9.11772C6.32196 8.96446 6.60356 8.39725 6.62404 8.16735C6.62916 8.13158 6.53188 8.28993 6.51652 8.31036C6.17349 8.87248 6.00453 9.19444 5.61542 9.8332C5.22119 10.477 4.914 11.0851 4.81672 11.8567C4.73992 12.3268 4.94984 13.1342 5.43622 13.2006C5.69222 13.2313 6.0199 12.9349 6.25541 12.4954C6.47556 12.0815 6.64452 11.4888 6.6906 11.131C6.70596 11.0544 6.20933 11.9844 6.19397 12.0202Z" fill="#17494D"/>
<path d="M17.9134 6.57833C17.893 6.62432 17.8878 6.64987 17.8724 6.67031C17.8468 6.70608 17.6369 6.73163 17.5089 6.58345C17.3861 6.44547 17.3298 6.21553 17.3349 5.96003C17.3554 5.71475 17.4014 5.48991 17.5038 5.2293C17.6113 4.94315 17.6677 4.78474 17.7547 4.55479C17.7956 4.44237 17.9544 4.02846 17.9544 3.86495C17.9544 3.8394 17.898 3.95693 17.893 3.97226C17.6933 4.38617 17.596 4.62633 17.3707 5.09645C17.1403 5.57167 16.9663 6.01624 16.956 6.5579C16.9355 6.89007 17.1403 7.43676 17.4782 7.45211C17.6625 7.45728 17.8674 7.22729 18.0005 6.90533C18.1234 6.60388 18.2053 6.17975 18.2104 5.92426C18.2053 5.87316 17.9186 6.55278 17.9134 6.57833Z" fill="#17494D"/>
<path d="M11.744 7.82636C11.7235 7.87239 11.7184 7.89791 11.703 7.91834C11.6775 7.95411 11.4675 7.97972 11.3396 7.83145C11.2166 7.69353 11.1603 7.46354 11.1654 7.20804C11.1859 6.9628 11.232 6.73796 11.3344 6.47735C11.4419 6.1912 11.4983 6.03278 11.5852 5.80284C11.6263 5.69043 11.785 5.27652 11.785 5.113C11.785 5.08744 11.7286 5.20498 11.7235 5.22031C11.5239 5.63421 11.4265 5.87438 11.2013 6.3445C10.9709 6.8197 10.7968 7.26424 10.7866 7.80593C10.7661 8.13807 10.9709 8.68484 11.3088 8.70019C11.4931 8.70527 11.6979 8.47538 11.831 8.15341C11.9539 7.85197 12.0358 7.42777 12.0409 7.17226C12.0358 7.11606 11.7542 7.80085 11.744 7.82636Z" fill="#17494D"/>
<path d="M33.2218 13.0841C33.1962 13.1453 33.1859 13.176 33.1655 13.2067C33.1296 13.2527 32.8532 13.2884 32.679 13.0891C32.5203 12.9052 32.4384 12.5986 32.4487 12.2613C32.4743 11.9343 32.5408 11.6329 32.6689 11.2854C32.8122 10.9021 32.8839 10.6977 33.0016 10.3859C33.0579 10.2378 33.2678 9.6859 33.2678 9.46618C33.2678 9.4304 33.1911 9.58884 33.1808 9.60927C32.9145 10.1611 32.7866 10.478 32.4845 11.1065C32.1773 11.7401 31.9469 12.3329 31.9316 13.0534C31.9009 13.4979 32.1722 14.2236 32.6278 14.244C32.8685 14.2491 33.145 13.9425 33.3242 13.5133C33.4931 13.1096 33.5956 12.5424 33.6057 12.2102C33.6057 12.1438 33.232 13.0534 33.2218 13.0841Z" fill="#17494D"/>
<path d="M8.68752 14.933V14.9279C8.74896 14.422 8.65168 13.9673 8.58512 13.6045C8.48273 13.0372 8.21649 12.3781 7.96561 11.724C7.56626 10.707 7.61747 10.6407 7.62259 10.6304C7.64306 10.5946 7.78642 10.4107 8.11921 10.3136C8.42129 10.2216 8.7336 10.1859 8.73872 10.1808C8.82064 10.0939 8.89232 9.77193 8.88208 9.74133C8.84623 9.65443 8.43153 9.13835 8.14993 9.11792C7.85298 9.09749 7.72498 9.51134 7.66354 9.7515C7.64818 9.80262 7.63794 9.9202 7.64306 9.92528C7.64818 9.94062 7.68402 9.90994 7.7045 9.87925C7.81202 9.71064 7.86322 9.53694 7.99633 9.5522C8.14481 9.57272 8.37008 9.7515 8.41105 9.82304C8.04753 9.90485 7.91441 9.96614 7.76594 10.0735C7.68915 10.1297 7.59186 10.2625 7.54067 10.3852C7.48435 10.5129 7.46387 10.656 7.46387 10.8808C7.46387 10.9779 7.47411 11.1108 7.50482 11.2487C7.54067 11.3918 8.20113 13.0474 8.34961 13.6146C8.52368 14.2636 8.57488 14.6827 8.58 14.9483C8.58512 15.1016 8.51344 15.3878 8.51344 15.3878C8.50832 15.3929 8.51344 15.4031 8.51344 15.4082C8.62096 15.6433 8.69776 15.9141 8.7336 16.1747C8.7592 16.5069 8.63632 16.8032 8.36497 16.793C8.13457 16.788 8.01682 16.5325 8.02194 16.2514C8.02706 15.8323 8.03217 15.3724 7.87346 15.2089C7.85298 15.1885 7.80178 15.1885 7.78642 15.2089C7.69938 15.3367 7.56114 15.8068 7.58674 15.8477C7.6021 15.8784 7.65842 15.6382 7.72498 15.7864C7.81202 15.9805 7.79666 16.3178 7.79154 16.4456C7.7813 16.7112 7.7813 17.2836 8.25233 17.2784C8.62096 17.2734 8.7848 16.885 8.81552 16.4405C8.85135 16.6295 8.95888 17.1201 9.46576 17.1405C9.56817 17.1405 9.65006 17.1048 9.70127 17.069C9.80368 17.0025 9.85997 16.931 9.94186 16.7215C10.0136 16.5273 10.0238 16.2922 10.0084 16.1594C9.96238 15.7608 9.62955 15.3316 9.54765 14.8614C9.54765 14.8461 9.53739 14.8359 9.53231 14.8462C9.47084 14.9841 9.36843 15.2192 9.36843 15.3418C9.40429 15.6842 9.77808 16.2922 9.81394 16.5426C9.75247 16.6091 9.62955 16.655 9.44524 16.6091C9.28145 16.5682 9.17904 16.4557 9.11249 16.277C9.04594 16.093 8.99474 15.7915 8.95379 15.5717C8.86159 15.2038 8.72848 14.9944 8.68752 14.933Z" fill="#17494D"/>
<path d="M9.20433 7.21852C9.12244 7.06526 8.98417 6.90682 8.86131 6.8813C8.71283 6.85061 8.57459 6.98345 8.45172 7.24404C8.36468 7.42799 8.33908 7.55574 8.30324 7.74996C8.25204 8.0514 8.2674 8.24561 8.20597 8.55223C8.20597 8.55732 8.20085 8.55732 8.20085 8.55223C8.14964 8.29673 7.89365 7.26447 7.20247 7.16232C6.97207 7.12655 6.97207 7.64263 7.06935 7.7653C7.14103 7.85219 7.15639 7.77547 7.49942 8.03615C7.50454 8.04123 7.51478 8.03615 7.5199 8.03615C7.53526 8.01054 7.56086 7.9646 7.5711 7.92882C7.70421 8.07192 7.77589 8.23536 7.85781 8.43983C7.91925 8.58801 7.98581 8.8486 8.01141 8.95083C8.03701 9.06324 8.06261 9.15521 8.0882 9.1603C8.165 9.17056 8.28276 8.81282 8.30836 8.69533C8.36468 8.38362 8.38516 8.11278 8.421 7.81642C8.42612 7.7653 8.4466 7.66306 8.46708 7.60178C8.48243 7.55574 8.58484 7.32584 8.73331 7.34627C8.87155 7.3667 8.97908 7.51488 9.06606 7.65289C9.07632 7.66815 9.08658 7.65289 9.09167 7.64263C9.13779 7.55066 9.18899 7.34627 9.20433 7.2543C9.20942 7.23895 9.20942 7.22869 9.20433 7.21852Z" fill="#17494D"/>
<path d="M27.7539 4.20739C27.7232 4.20227 27.5542 4.25338 27.4415 4.29425C23.4224 5.76081 18.9527 7.68213 18.0875 8.25959C17.9647 8.34131 17.8725 8.41795 17.8008 8.49975C17.6882 8.6275 17.3963 9.21514 17.3349 9.41952C17.3349 9.41952 17.3144 9.47573 17.34 9.49107C17.3707 9.50641 17.4731 9.37358 17.4885 9.36332C18.1183 8.6275 24.472 6.07251 27.3135 4.97387C27.3187 4.97387 27.3289 4.96366 27.334 4.95855C27.4159 4.84102 27.6924 4.3709 27.7589 4.25849C27.7641 4.23294 27.7795 4.20739 27.7539 4.20739Z" fill="#17494D"/>
<path d="M34.9217 7.85777C34.891 7.85269 34.722 7.90372 34.6094 7.94467C30.5903 9.41121 27.0934 10.9493 26.2281 11.5267C26.1053 11.6085 26.0131 11.6851 25.9414 11.7668C25.8288 11.8946 25.5369 12.4822 25.4756 12.6867C25.4756 12.6867 25.455 12.7429 25.4806 12.7582C25.5113 12.7735 25.6137 12.6407 25.6292 12.6253C26.2589 11.8895 31.6399 9.71774 34.4814 8.61911C34.4865 8.61911 34.4968 8.60893 34.5018 8.60385C34.5838 8.48627 34.8603 8.01613 34.9268 7.90372C34.9319 7.88329 34.9473 7.86286 34.9217 7.85777Z" fill="#17494D"/>
<path d="M21.7636 3.86689C21.6663 3.69315 21.5127 3.5143 21.3745 3.48363C21.2107 3.44787 21.0468 3.60117 20.9086 3.89244C20.8062 4.10194 20.7806 4.25013 20.7396 4.46475C20.6833 4.80711 20.6987 5.03195 20.6321 5.37432C20.6321 5.37943 20.627 5.37943 20.627 5.37432C20.5655 5.08816 20.2788 3.91288 19.4955 3.79535C19.2293 3.75446 19.2343 4.337 19.347 4.48007C19.4238 4.58227 19.4442 4.4903 19.8334 4.78667C19.8436 4.79179 19.8539 4.79179 19.859 4.78667C19.8795 4.76112 19.9051 4.71002 19.9204 4.66404C20.0741 4.82755 20.1509 5.01151 20.2481 5.24146C20.3198 5.41008 20.3966 5.70135 20.4222 5.81889C20.4529 5.94663 20.4785 6.04883 20.5092 6.05394C20.5963 6.06417 20.7345 5.66047 20.755 5.52762C20.8215 5.17503 20.8421 4.86333 20.883 4.53117C20.8881 4.46986 20.9137 4.36255 20.9393 4.28589C20.9546 4.2348 21.0724 3.97419 21.2414 3.99463C21.395 4.01508 21.523 4.18881 21.6202 4.34211C21.6305 4.35744 21.6407 4.34211 21.6458 4.33189C21.697 4.22969 21.7533 3.99974 21.7738 3.89244C21.7688 3.89244 21.7688 3.8771 21.7636 3.86689Z" fill="#17494D"/>
<path d="M30.9641 6.75761C30.8822 6.60431 30.7439 6.44591 30.6211 6.42036C30.4726 6.3897 30.3344 6.52256 30.2115 6.78314C30.1245 6.96709 30.0989 7.09484 30.063 7.28905C30.0118 7.5905 30.0272 7.78471 29.9657 8.09133C29.9657 8.09642 29.9606 8.09642 29.9606 8.09133C29.9094 7.83583 29.6535 6.80357 28.9623 6.7014C28.7318 6.66564 28.7318 7.18173 28.8291 7.3044C28.9008 7.3912 28.9162 7.31457 29.2592 7.57524C29.2643 7.58033 29.2746 7.57524 29.2797 7.57524C29.295 7.54964 29.3206 7.50878 29.3309 7.46792C29.464 7.61093 29.5356 7.77445 29.6176 7.97893C29.679 8.12711 29.7456 8.38769 29.7712 8.48984C29.7967 8.60234 29.8223 8.69431 29.8479 8.6994C29.9247 8.70957 30.0425 8.35192 30.0681 8.23443C30.1245 7.92263 30.1449 7.65188 30.1808 7.35552C30.1859 7.3044 30.2064 7.20216 30.2268 7.14087C30.2422 7.09484 30.3446 6.86494 30.4931 6.88537C30.6313 6.9058 30.7389 7.05398 30.8258 7.19199C30.8361 7.20725 30.8464 7.19199 30.8514 7.18173C30.8976 7.08976 30.9488 6.88537 30.9641 6.79339C30.9641 6.77805 30.9641 6.76784 30.9641 6.75761Z" fill="#17494D"/>
<path d="M37.2307 18.8884C37.1487 18.7352 37.0105 18.5767 36.8876 18.5512C36.7392 18.5205 36.6009 18.6534 36.4781 18.914C36.391 19.098 36.3654 19.2258 36.3296 19.4199C36.2784 19.7214 36.2938 19.9155 36.2323 20.2222C36.2323 20.2272 36.2272 20.2272 36.2272 20.2222C36.176 19.9667 35.92 18.9345 35.2288 18.8322C34.9985 18.7965 34.9985 19.3126 35.0957 19.4352C35.1674 19.5221 35.1828 19.4455 35.5258 19.7061C35.5308 19.7112 35.5411 19.7061 35.5463 19.7061C35.5616 19.6806 35.5872 19.6396 35.5975 19.5987C35.7306 19.7418 35.8022 19.9054 35.8841 20.1097C35.9456 20.2579 36.0121 20.5185 36.0377 20.6208C36.0633 20.7332 36.0889 20.8251 36.1145 20.8302C36.1913 20.8405 36.3091 20.4827 36.3347 20.3653C36.391 20.0535 36.4115 19.7827 36.4474 19.4863C36.4525 19.4352 36.473 19.3331 36.4934 19.2717C36.5088 19.2258 36.6112 18.9958 36.7597 19.0162C36.8979 19.0366 37.0054 19.1848 37.0924 19.3228C37.1027 19.3382 37.113 19.3228 37.118 19.3126C37.1641 19.2206 37.2153 19.0162 37.2307 18.9242C37.2307 18.9089 37.2307 18.8987 37.2307 18.8884Z" fill="#17494D"/>
<path d="M15.7065 5.1579C15.6092 4.98416 15.4556 4.80531 15.3173 4.77465C15.1535 4.73888 14.9897 4.89219 14.8515 5.18345C14.7491 5.39296 14.7235 5.54115 14.6825 5.75576C14.6261 6.09813 14.6416 6.32297 14.575 6.66534C14.575 6.67045 14.5698 6.67045 14.5698 6.66534C14.5084 6.37918 14.2217 5.20389 13.4383 5.08636C13.1721 5.04548 13.1772 5.62801 13.2899 5.7711C13.3667 5.87329 13.3871 5.78131 13.7762 6.07769C13.7865 6.0828 13.7968 6.0828 13.8019 6.07769C13.8224 6.05214 13.848 6.00104 13.8633 5.95505C14.0169 6.11857 14.0937 6.30253 14.191 6.53247C14.2627 6.7011 14.3394 6.99237 14.365 7.10986C14.3958 7.23761 14.4214 7.33985 14.4521 7.34493C14.5392 7.35519 14.6773 6.95151 14.6979 6.81867C14.7644 6.46605 14.7849 6.15434 14.8259 5.82219C14.831 5.76087 14.8566 5.65356 14.8822 5.57691C14.8975 5.52582 15.0153 5.26521 15.1842 5.28564C15.3378 5.30609 15.4659 5.47983 15.5631 5.63312C15.5734 5.64846 15.5836 5.63312 15.5887 5.62291C15.6399 5.52071 15.6962 5.29076 15.7167 5.18345C15.7065 5.18345 15.7065 5.16812 15.7065 5.1579Z" fill="#17494D"/>
<path d="M36.0891 14.3218C36.0788 14.3524 36.0687 14.3677 36.0635 14.383C36.0482 14.4035 35.9048 14.4239 35.8126 14.3218C35.7308 14.2298 35.6898 14.0713 35.6949 13.8976C35.7102 13.729 35.741 13.5757 35.8076 13.3968C35.8792 13.1976 35.9201 13.0954 35.9765 12.9369C36.0072 12.8603 36.1147 12.5793 36.1147 12.4669C36.1147 12.4515 36.0738 12.5282 36.0687 12.5384C35.9304 12.8194 35.8689 12.983 35.7102 13.3048C35.5515 13.6319 35.4338 13.9334 35.4235 14.3064C35.4082 14.5364 35.5465 14.9094 35.782 14.9196C35.9048 14.9196 36.0482 14.7663 36.1403 14.5466C36.2274 14.3422 36.2786 14.0509 36.2837 13.8772C36.2888 13.8363 36.0943 14.3013 36.0891 14.3218Z" fill="#17494D"/>
<path d="M22.4087 9.51316C22.3985 9.54385 22.3882 9.55919 22.3831 9.57445C22.3678 9.59497 22.2244 9.61539 22.1322 9.51316C22.0503 9.42118 22.0093 9.26274 22.0144 9.08905C22.0299 8.92044 22.0606 8.76708 22.1271 8.5883C22.1988 8.389 22.2398 8.28677 22.2961 8.12842C22.3267 8.0517 22.4343 7.77068 22.4292 7.65827C22.4292 7.64293 22.3882 7.71956 22.3831 7.72982C22.2449 8.01084 22.1834 8.17436 22.0247 8.49633C21.866 8.82329 21.7482 9.12482 21.738 9.49781C21.7226 9.7278 21.8609 10.1008 22.0964 10.1111C22.2193 10.1111 22.3626 9.9577 22.4548 9.73797C22.5418 9.53359 22.593 9.24231 22.5981 9.06862C22.6084 9.02776 22.4138 9.49781 22.4087 9.51316Z" fill="#17494D"/>
<path d="M29.8681 12.7417C29.8579 12.7724 29.8477 12.7877 29.8425 12.803C29.8272 12.8235 29.6838 12.8439 29.5917 12.7417C29.5098 12.6497 29.4688 12.4913 29.4739 12.3176C29.4892 12.149 29.52 11.9956 29.5866 11.8168C29.6582 11.6175 29.6992 11.5153 29.7555 11.3568C29.7862 11.2802 29.8937 10.9992 29.8886 10.8868C29.8886 10.8714 29.8477 10.9481 29.8425 10.9583C29.7043 11.2394 29.6429 11.4029 29.4842 11.7248C29.3255 12.0518 29.2077 12.3533 29.1974 12.7263C29.1821 12.9563 29.3203 13.3293 29.5558 13.3396C29.6787 13.3396 29.8221 13.1862 29.9142 12.9665C30.0013 12.7621 30.0524 12.4708 30.0576 12.2971C30.0679 12.2614 29.8784 12.7263 29.8681 12.7417Z" fill="#17494D"/>
<path d="M37.0872 10.8709C37.0053 10.7176 36.867 10.5592 36.7441 10.5336C36.5956 10.503 36.4574 10.6359 36.3345 10.8964C36.2475 11.0804 36.2219 11.2082 36.1861 11.4024C36.1349 11.7038 36.1502 11.898 36.0888 12.2046C36.0888 12.2097 36.0836 12.2097 36.0836 12.2046C36.0324 11.9491 35.7765 10.9169 35.0853 10.8147C34.8549 10.779 34.8549 11.295 34.9521 11.4177C35.0239 11.5045 35.0392 11.4279 35.3822 11.6885C35.3874 11.6936 35.3976 11.6885 35.4027 11.6885C35.4181 11.663 35.4437 11.6221 35.4539 11.5812C35.587 11.7242 35.6587 11.8878 35.7406 12.0922C35.8021 12.2404 35.8687 12.501 35.8943 12.6032C35.9199 12.7156 35.9455 12.8076 35.9711 12.8127C36.0478 12.8229 36.1655 12.4652 36.1911 12.3477C36.2475 12.0359 36.268 11.7652 36.3038 11.4687C36.3089 11.4177 36.3294 11.3155 36.3499 11.2542C36.3653 11.2082 36.4677 10.9783 36.6161 10.9987C36.7544 11.0191 36.8619 11.1673 36.9489 11.3053C36.9591 11.3206 36.9694 11.3053 36.9745 11.295C37.0206 11.2031 37.0718 10.9987 37.0872 10.9067C37.0922 10.8914 37.0922 10.8811 37.0872 10.8709Z" fill="#17494D"/>
<path d="M26.5304 8.80688C26.5509 8.81197 26.556 8.83749 26.5406 8.84774C26.4025 8.93455 25.957 9.19522 25.0508 9.6295C24.8614 9.72148 24.1702 10.0946 24.1855 10.115C24.1958 10.1303 24.4723 10.0537 24.6207 10.0179C25.2812 9.84923 26.0492 9.72666 26.1157 9.69088C26.4793 9.50693 26.94 8.94481 27.0066 8.85283C27.4417 8.26519 27.5748 7.91771 27.5954 7.80531C27.6004 7.76953 27.5851 7.74393 27.5851 7.73885C27.5492 7.69799 27.4929 7.6673 27.3752 7.63152C26.7813 7.468 25.1327 7.48852 24.9279 7.64178C24.9279 7.64178 24.7538 7.68773 24.1702 8.93972C24.1497 8.9755 24.2521 8.93455 24.2521 8.93455C24.2521 8.93455 24.4108 8.87834 24.6566 8.83749C24.8767 8.80689 26.0645 8.75059 26.5304 8.80688Z" fill="#17494D"/>
<path d="M55.7441 21.0301C55.7441 22.3371 55.6377 23.3782 55.4249 24.1533C55.2121 24.9435 54.8474 25.5819 54.3307 26.0682C53.8292 26.5697 53.1073 27.0181 52.165 27.4132L52.1422 27.436C52.0966 27.436 52.0586 27.3981 52.0282 27.322C51.9978 27.2613 51.9978 27.2157 52.0282 27.1853C52.7881 26.7445 53.32 26.0758 53.624 25.1791C53.928 24.2824 54.0799 23.1046 54.0799 21.6456V10.1559C54.0799 9.69998 54.0267 9.36565 53.9203 9.15285C53.8292 8.94005 53.6468 8.79573 53.3732 8.71971C53.1148 8.62852 52.7045 8.58292 52.1422 8.58292C52.1118 8.58292 52.0966 8.53733 52.0966 8.44614C52.0966 8.35495 52.1118 8.30936 52.1422 8.30936L53.396 8.33216C54.0343 8.36258 54.5282 8.37775 54.8778 8.37775C55.2882 8.37775 55.7821 8.36258 56.3596 8.33216L57.3855 8.30936C57.4159 8.30936 57.4311 8.35495 57.4311 8.44614C57.4311 8.53733 57.4159 8.58292 57.3855 8.58292C56.8991 8.58292 56.542 8.62852 56.314 8.71971C56.0861 8.81089 55.9341 8.97047 55.8581 9.19844C55.7821 9.41124 55.7441 9.74557 55.7441 10.2015V21.0301ZM74.3748 22.2839C74.4355 22.2839 74.466 22.3295 74.466 22.4207C74.466 22.5119 74.4355 22.5575 74.3748 22.5575C74.086 22.5575 73.6376 22.5423 73.0297 22.5119C72.4219 22.4815 71.9735 22.4663 71.6847 22.4663C71.3351 22.4663 70.902 22.4815 70.3853 22.5119C69.8989 22.5423 69.519 22.5575 69.2454 22.5575C69.1847 22.5575 69.1543 22.5119 69.1543 22.4207C69.1543 22.3295 69.1847 22.2839 69.2454 22.2839C69.7926 22.2839 70.1801 22.2383 70.4081 22.1471C70.6512 22.0408 70.7728 21.8584 70.7728 21.6C70.7728 21.372 70.6665 21.0301 70.4537 20.5741L68.4931 16.4707H63.0447L61.6996 19.5939C61.5021 20.0498 61.4033 20.4678 61.4033 20.8477C61.4033 21.8052 62.1404 22.2839 63.6146 22.2839C63.6906 22.2839 63.7286 22.3295 63.7286 22.4207C63.7286 22.5119 63.6906 22.5575 63.6146 22.5575C63.341 22.5575 62.9458 22.5423 62.4291 22.5119C61.8516 22.4815 61.3501 22.4663 60.9245 22.4663C60.5446 22.4663 60.0811 22.4815 59.5339 22.5119C59.078 22.5423 58.6904 22.5575 58.3713 22.5575C58.2953 22.5575 58.2573 22.5119 58.2573 22.4207C58.2573 22.3295 58.2953 22.2839 58.3713 22.2839C58.7968 22.2839 59.154 22.2079 59.4427 22.0559C59.7467 21.8887 60.0355 21.6 60.309 21.1897C60.5826 20.7793 60.8866 20.179 61.2209 19.3887L66.0311 8.12698C66.0615 8.08139 66.1223 8.05859 66.2134 8.05859C66.3046 8.05859 66.3579 8.08139 66.373 8.12698L71.7987 19.4343C72.3154 20.5437 72.7562 21.296 73.1209 21.6912C73.4857 22.0864 73.9037 22.2839 74.3748 22.2839ZM63.2498 15.9919H68.2652L65.6207 10.4751L63.2498 15.9919ZM93.8212 8.30936C93.8668 8.30936 93.8896 8.35495 93.8896 8.44614C93.8896 8.53733 93.8668 8.58292 93.8212 8.58292C92.7419 8.58292 91.944 9.23641 91.4275 10.5435L86.6857 22.5347C86.6705 22.5954 86.5868 22.6259 86.4349 22.6259C86.3133 22.6259 86.2297 22.5954 86.1841 22.5347L83.2205 16.1287L80.6901 22.5347C80.6749 22.5954 80.5912 22.6259 80.4393 22.6259C80.3177 22.6259 80.2341 22.5954 80.1885 22.5347L74.5121 10.2015C74.2233 9.57836 73.9421 9.15285 73.6686 8.92488C73.4102 8.69691 73.0531 8.58292 72.5971 8.58292C72.5515 8.58292 72.5287 8.53733 72.5287 8.44614C72.5287 8.35495 72.5515 8.30936 72.5971 8.30936L73.3722 8.33216C73.7977 8.36258 74.155 8.37775 74.4437 8.37775C75.0668 8.37775 75.7127 8.36258 76.3814 8.33216C76.6094 8.31699 76.9058 8.30936 77.2705 8.30936C77.3161 8.30936 77.3389 8.35495 77.3389 8.44614C77.3389 8.53733 77.3161 8.58292 77.2705 8.58292C76.8297 8.58292 76.503 8.63615 76.2902 8.7425C76.0927 8.83369 75.9939 9.0009 75.9939 9.24404C75.9939 9.47201 76.0851 9.79116 76.2674 10.2015L80.9864 20.3234L82.9242 15.4676L80.4849 10.2015C80.2265 9.62396 79.9606 9.21361 79.687 8.97047C79.4134 8.71208 79.0791 8.58292 78.6839 8.58292C78.6383 8.58292 78.6155 8.53733 78.6155 8.44614C78.6155 8.35495 78.6383 8.30936 78.6839 8.30936L79.459 8.33216C79.8238 8.36258 80.1506 8.37775 80.4393 8.37775C80.956 8.37775 81.4575 8.36258 81.9439 8.33216C82.0958 8.31699 82.301 8.30936 82.5594 8.30936C82.605 8.30936 82.6278 8.35495 82.6278 8.44614C82.6278 8.53733 82.605 8.58292 82.5594 8.58292C82.2858 8.58292 82.0883 8.61335 81.9667 8.67411C81.8603 8.71971 81.8071 8.81089 81.8071 8.94768C81.8071 9.11488 81.9515 9.53277 82.2403 10.2015L83.7904 13.5299L85.0215 10.4295C85.219 9.97354 85.3178 9.59362 85.3178 9.28963C85.3178 8.81852 85.0139 8.58292 84.406 8.58292C84.3755 8.58292 84.3604 8.53733 84.3604 8.44614C84.3604 8.35495 84.3755 8.30936 84.406 8.30936L84.9075 8.33216C85.1811 8.36258 85.5154 8.37775 85.9106 8.37775C86.1993 8.37775 86.5413 8.36258 86.9364 8.33216L87.8484 8.30936C87.8791 8.30936 87.894 8.35495 87.894 8.44614C87.894 8.53733 87.8791 8.58292 87.8484 8.58292C87.3468 8.58292 86.906 8.73488 86.5261 9.03886C86.1462 9.3276 85.8194 9.82913 85.5458 10.5435L84.0868 14.1682L86.982 20.3234L90.8804 10.4979C91.0023 10.1635 91.0628 9.87473 91.0628 9.63159C91.0628 8.93251 90.5156 8.58292 89.4214 8.58292C89.3758 8.58292 89.353 8.53733 89.353 8.44614C89.353 8.35495 89.3758 8.30936 89.4214 8.30936L90.4017 8.33216C90.9181 8.36258 91.3819 8.37775 91.7923 8.37775C92.1114 8.37775 92.4683 8.36258 92.8637 8.33216L93.8212 8.30936ZM110.23 22.2839C110.275 22.2839 110.298 22.3295 110.298 22.4207C110.298 22.5119 110.275 22.5575 110.23 22.5575C109.743 22.5575 109.363 22.5499 109.09 22.5347L107.471 22.5119L105.716 22.5347C105.457 22.5499 105.1 22.5575 104.645 22.5575C104.599 22.5575 104.576 22.5119 104.576 22.4207C104.576 22.3295 104.599 22.2839 104.645 22.2839C105.237 22.2839 105.662 22.2459 105.921 22.1699C106.195 22.0939 106.377 21.9496 106.468 21.7368C106.574 21.5088 106.628 21.1669 106.628 20.7109V15.3992H98.1246V20.7109C98.1246 21.1669 98.1702 21.5088 98.2614 21.7368C98.3675 21.9496 98.5498 22.0939 98.8085 22.1699C99.0821 22.2459 99.5152 22.2839 100.108 22.2839C100.138 22.2839 100.154 22.3295 100.154 22.4207C100.154 22.5119 100.138 22.5575 100.108 22.5575C99.6213 22.5575 99.2416 22.5499 98.9681 22.5347L97.2583 22.5119L95.6625 22.5347C95.3889 22.5499 95.0014 22.5575 94.4999 22.5575C94.4692 22.5575 94.4543 22.5119 94.4543 22.4207C94.4543 22.3295 94.4692 22.2839 94.4999 22.2839C95.0768 22.2839 95.495 22.2459 95.7537 22.1699C96.0273 22.0939 96.2096 21.9496 96.3008 21.7368C96.4069 21.5088 96.4604 21.1669 96.4604 20.7109V10.1559C96.4604 9.69998 96.4069 9.36565 96.3008 9.15285C96.2096 8.94005 96.0273 8.79573 95.7537 8.71971C95.495 8.62852 95.0847 8.58292 94.5227 8.58292C94.492 8.58292 94.4771 8.53733 94.4771 8.44614C94.4771 8.35495 94.492 8.30936 94.5227 8.30936L95.6853 8.33216C96.3236 8.36258 96.8479 8.37775 97.2583 8.37775C97.7142 8.37775 98.2912 8.36258 98.9909 8.33216L100.108 8.30936C100.138 8.30936 100.154 8.35495 100.154 8.44614C100.154 8.53733 100.138 8.58292 100.108 8.58292C99.5301 8.58292 99.1049 8.62852 98.8313 8.71971C98.5577 8.81089 98.3675 8.97047 98.2614 9.19844C98.1702 9.41124 98.1246 9.74557 98.1246 10.2015V14.8977H106.628V10.2015C106.628 9.74557 106.574 9.41124 106.468 9.19844C106.377 8.97047 106.195 8.81089 105.921 8.71971C105.648 8.62852 105.221 8.58292 104.645 8.58292C104.599 8.58292 104.576 8.53733 104.576 8.44614C104.576 8.35495 104.599 8.30936 104.645 8.30936L105.716 8.33216C106.384 8.36258 106.97 8.37775 107.471 8.37775C107.882 8.37775 108.421 8.36258 109.09 8.33216L110.23 8.30936C110.275 8.30936 110.298 8.35495 110.298 8.44614C110.298 8.53733 110.275 8.58292 110.23 8.58292C109.652 8.58292 109.227 8.62852 108.953 8.71971C108.694 8.79573 108.512 8.94005 108.406 9.15285C108.315 9.36565 108.269 9.69998 108.269 10.1559V20.7109C108.269 21.1669 108.315 21.5088 108.406 21.7368C108.512 21.9496 108.694 22.0939 108.953 22.1699C109.227 22.2459 109.652 22.2839 110.23 22.2839ZM127.049 22.2839C127.109 22.2839 127.14 22.3295 127.14 22.4207C127.14 22.5119 127.109 22.5575 127.049 22.5575C126.759 22.5575 126.311 22.5423 125.704 22.5119C125.095 22.4815 124.647 22.4663 124.359 22.4663C124.009 22.4663 123.576 22.4815 123.059 22.5119C122.573 22.5423 122.193 22.5575 121.919 22.5575C121.858 22.5575 121.828 22.5119 121.828 22.4207C121.828 22.3295 121.858 22.2839 121.919 22.2839C122.466 22.2839 122.854 22.2383 123.082 22.1471C123.325 22.0408 123.447 21.8584 123.447 21.6C123.447 21.372 123.34 21.0301 123.128 20.5741L121.167 16.4707H115.719L114.374 19.5939C114.175 20.0498 114.077 20.4678 114.077 20.8477C114.077 21.8052 114.814 22.2839 116.289 22.2839C116.364 22.2839 116.403 22.3295 116.403 22.4207C116.403 22.5119 116.364 22.5575 116.289 22.5575C116.015 22.5575 115.62 22.5423 115.103 22.5119C114.525 22.4815 114.024 22.4663 113.598 22.4663C113.218 22.4663 112.755 22.4815 112.208 22.5119C111.752 22.5423 111.364 22.5575 111.045 22.5575C110.969 22.5575 110.931 22.5119 110.931 22.4207C110.931 22.3295 110.969 22.2839 111.045 22.2839C111.47 22.2839 111.827 22.2079 112.117 22.0559C112.42 21.8887 112.709 21.6 112.983 21.1897C113.257 20.7793 113.56 20.179 113.895 19.3887L118.705 8.12698C118.735 8.08139 118.796 8.05859 118.887 8.05859C118.979 8.05859 119.031 8.08139 119.047 8.12698L124.473 19.4343C124.989 20.5437 125.43 21.296 125.795 21.6912C126.16 22.0864 126.577 22.2839 127.049 22.2839ZM115.924 15.9919H120.939L118.295 10.4751L115.924 15.9919ZM142.758 22.2839C142.803 22.2839 142.826 22.3295 142.826 22.4207C142.826 22.5119 142.803 22.5575 142.758 22.5575H139.634C139.27 22.5575 138.578 21.942 137.56 20.7109C136.557 19.4647 135.326 17.7321 133.867 15.5132C133.456 15.5892 133.077 15.6272 132.727 15.6272C132.651 15.6272 132.294 15.6044 131.655 15.5588V20.7109C131.655 21.182 131.701 21.524 131.792 21.7368C131.883 21.9496 132.058 22.0939 132.317 22.1699C132.575 22.2459 132.986 22.2839 133.548 22.2839C133.593 22.2839 133.616 22.3295 133.616 22.4207C133.616 22.5119 133.593 22.5575 133.548 22.5575C133.061 22.5575 132.689 22.5499 132.431 22.5347L130.812 22.5119L129.239 22.5347C128.95 22.5499 128.563 22.5575 128.076 22.5575C128.046 22.5575 128.031 22.5119 128.031 22.4207C128.031 22.3295 128.046 22.2839 128.076 22.2839C128.638 22.2839 129.049 22.2459 129.307 22.1699C129.566 22.0939 129.74 21.9496 129.832 21.7368C129.938 21.5088 129.991 21.1669 129.991 20.7109V10.1559C129.991 9.69998 129.946 9.36565 129.854 9.15285C129.763 8.94005 129.589 8.79573 129.33 8.71971C129.071 8.62852 128.669 8.58292 128.122 8.58292C128.076 8.58292 128.054 8.53733 128.054 8.44614C128.054 8.35495 128.076 8.30936 128.122 8.30936L129.239 8.33216C129.877 8.36258 130.402 8.37775 130.812 8.37775C131.131 8.37775 131.435 8.37012 131.724 8.35495C132.012 8.33979 132.263 8.32453 132.476 8.30936C133.038 8.26377 133.562 8.24097 134.049 8.24097C135.265 8.24097 136.207 8.51453 136.876 9.06166C137.56 9.59362 137.902 10.3155 137.902 11.2274C137.902 12.0481 137.659 12.7927 137.172 13.4615C136.701 14.1302 136.07 14.6546 135.28 15.0345C136.557 16.8734 137.62 18.3096 138.472 19.3431C139.338 20.3766 140.105 21.1289 140.774 21.6C141.458 22.0559 142.119 22.2839 142.758 22.2839ZM131.655 15.0117C132.081 15.0573 132.53 15.0801 133 15.0801C134.14 15.0801 134.953 14.8293 135.44 14.3278C135.926 13.8111 136.169 13.0132 136.169 11.9341C136.169 10.7335 135.918 9.88235 135.417 9.38082C134.915 8.86412 134.194 8.60572 133.251 8.60572C132.659 8.60572 132.24 8.71971 131.997 8.94768C131.769 9.16048 131.655 9.57836 131.655 10.2015V15.0117ZM150.848 22.831C149.161 22.831 147.694 22.4967 146.448 21.828C145.201 21.1592 144.244 20.2626 143.576 19.1379C142.922 17.9981 142.595 16.7442 142.595 15.3764C142.595 13.9174 142.967 12.6332 143.712 11.5237C144.472 10.4143 145.505 9.56319 146.813 8.97047C148.119 8.36258 149.586 8.05859 151.213 8.05859C152.018 8.05859 152.77 8.13461 153.47 8.28656C154.183 8.42335 154.769 8.62852 155.225 8.90208C155.346 8.96284 155.414 9.01607 155.43 9.06166C155.46 9.09209 155.483 9.20607 155.498 9.40362L155.795 12.1621C155.795 12.2076 155.749 12.2381 155.658 12.2532C155.582 12.2684 155.536 12.2532 155.521 12.2076C155.186 11.0982 154.624 10.1939 153.834 9.4948C153.043 8.79573 151.995 8.44614 150.688 8.44614C149.533 8.44614 148.484 8.71208 147.542 9.24404C146.615 9.776 145.878 10.5435 145.331 11.5465C144.799 12.5496 144.533 13.7122 144.533 15.0345C144.533 16.3567 144.799 17.5877 145.331 18.7276C145.862 19.8523 146.645 20.7641 147.679 21.4632C148.728 22.1471 149.982 22.4891 151.441 22.4891C152.489 22.4891 153.219 22.2915 153.629 21.8964C154.054 21.486 154.267 20.7565 154.267 19.7079C154.267 18.9176 154.214 18.3705 154.108 18.0665C154.017 17.7473 153.804 17.5345 153.47 17.4282C153.15 17.3218 152.573 17.2686 151.737 17.2686C151.646 17.2686 151.6 17.2078 151.6 17.0862C151.6 17.0406 151.607 17.0026 151.623 16.9722C151.653 16.9266 151.683 16.9038 151.714 16.9038C152.929 16.9798 153.91 17.0178 154.655 17.0178C155.369 17.0178 156.129 16.995 156.935 16.9494C156.995 16.9494 157.026 17.0026 157.026 17.109C157.041 17.2154 157.01 17.2686 156.935 17.2686C156.57 17.2534 156.311 17.3065 156.16 17.4282C156.023 17.5345 155.932 17.7625 155.886 18.1121C155.84 18.4616 155.818 19.0695 155.818 19.9358C155.818 20.6197 155.84 21.1061 155.886 21.3948C155.947 21.6836 155.977 21.8659 155.977 21.942C155.977 22.0331 155.961 22.0939 155.932 22.1243C155.901 22.1548 155.833 22.1851 155.726 22.2155C153.841 22.6259 152.216 22.831 150.848 22.831ZM171.861 8.30936C171.892 8.30936 171.907 8.35495 171.907 8.44614C171.907 8.53733 171.892 8.58292 171.861 8.58292C171.33 8.58292 170.767 8.80327 170.174 9.24404C169.598 9.66955 169.08 10.2547 168.624 10.9994L165.683 15.5588V20.7109C165.683 21.182 165.729 21.524 165.82 21.7368C165.911 21.9496 166.079 22.0939 166.322 22.1699C166.58 22.2459 166.991 22.2839 167.553 22.2839C167.598 22.2839 167.621 22.3295 167.621 22.4207C167.621 22.5119 167.598 22.5575 167.553 22.5575C167.082 22.5575 166.717 22.5499 166.459 22.5347L164.84 22.5119L163.267 22.5347C162.979 22.5499 162.591 22.5575 162.104 22.5575C162.075 22.5575 162.059 22.5119 162.059 22.4207C162.059 22.3295 162.075 22.2839 162.104 22.2839C162.667 22.2839 163.078 22.2459 163.335 22.1699C163.594 22.0939 163.769 21.9496 163.86 21.7368C163.967 21.5088 164.019 21.1669 164.019 20.7109V15.9236L160.326 10.4523C159.87 9.7532 159.453 9.26683 159.072 8.99327C158.693 8.71971 158.274 8.58292 157.818 8.58292C157.773 8.58292 157.75 8.53733 157.75 8.44614C157.75 8.35495 157.773 8.30936 157.818 8.30936L158.616 8.33216C158.981 8.36258 159.248 8.37775 159.414 8.37775C159.932 8.37775 160.6 8.36258 161.42 8.33216L162.697 8.30936C162.728 8.30936 162.743 8.35495 162.743 8.44614C162.743 8.53733 162.728 8.58292 162.697 8.58292C161.953 8.58292 161.58 8.75767 161.58 9.10726C161.58 9.25921 161.664 9.45684 161.831 9.69998L165.41 15.0117L168.054 10.8626C168.404 10.2851 168.579 9.81396 168.579 9.44921C168.579 8.87166 168.168 8.58292 167.348 8.58292C167.318 8.58292 167.302 8.53733 167.302 8.44614C167.302 8.35495 167.318 8.30936 167.348 8.30936L168.442 8.33216C169.05 8.36258 169.598 8.37775 170.083 8.37775C170.342 8.37775 170.653 8.36258 171.018 8.33216L171.861 8.30936Z" fill="#17494D"/>
</svg>
