<svg width="83" height="36" viewBox="0 0 83 36" fill="none" xmlns="http://www.w3.org/2000/svg">
<g clip-path="url(#clip0_2597_29624)">
<path d="M27.1794 14.9558C27.4772 14.8788 27.7873 14.8275 28.0974 14.789C28.4199 14.7505 28.792 14.7377 29.2261 14.7377C29.7595 14.7377 30.2061 14.8019 30.5657 14.9301C30.9256 15.0584 31.1983 15.2252 31.3844 15.4433C31.5704 15.6614 31.7069 15.9052 31.7938 16.1746C31.8807 16.4441 31.9054 16.7263 31.9054 17.0086C31.9054 17.0984 31.9054 17.1882 31.893 17.2652C31.8807 17.3421 31.8683 17.432 31.8558 17.5218L30.6898 24.6295C30.6526 24.8861 30.6153 25.1299 30.5906 25.3865C30.5533 25.6431 30.541 25.8867 30.541 26.1433C30.541 26.4001 30.5533 26.6309 30.5657 26.8747C30.5782 27.1056 30.6278 27.3366 30.6898 27.5802C30.3921 27.7215 30.0325 27.8498 29.5982 27.9653C29.1641 28.0806 28.6679 28.1449 28.1098 28.1449C27.1174 28.1449 26.4227 27.9653 26.0259 27.5932C25.629 27.2211 25.4305 26.6694 25.4552 25.9124C25.4552 25.8227 25.4552 25.7199 25.4552 25.6174C25.4552 25.5148 25.4676 25.4121 25.4801 25.3223L27.1794 14.9558ZM27.5888 11.1838C27.5888 10.6835 27.6632 10.2473 27.8244 9.88804C27.9858 9.5288 28.1842 9.23371 28.4447 8.98996C28.7051 8.74618 29.0029 8.56656 29.3501 8.45109C29.6975 8.33563 30.0572 8.27148 30.4417 8.27148C30.8014 8.27148 31.1363 8.33563 31.4341 8.46392C31.7318 8.59223 31.9674 8.75901 32.1659 8.96428C32.352 9.16956 32.5009 9.40051 32.6125 9.66992C32.7116 9.92652 32.7736 10.1831 32.7736 10.4397C32.7736 10.9401 32.6993 11.3763 32.538 11.7355C32.3768 12.0948 32.1783 12.3898 31.9178 12.6336C31.6573 12.8774 31.3597 13.057 31.0123 13.1725C30.6651 13.2879 30.3052 13.3521 29.9207 13.3521C29.5362 13.3521 29.2014 13.2879 28.916 13.1596C28.6308 13.0313 28.3826 12.8646 28.1842 12.6593C27.9858 12.454 27.8369 12.2231 27.7377 11.9536C27.6384 11.6842 27.5888 11.4404 27.5888 11.1838Z" fill="#17494D"/>
<path d="M34.882 10.8626C35.1798 10.7857 35.4899 10.7343 35.7999 10.6958C36.1225 10.6574 36.4946 10.6445 36.9287 10.6445C37.4621 10.6445 37.9087 10.7087 38.2559 10.837C38.6033 10.9653 38.8762 11.1321 39.0745 11.3502C39.273 11.5683 39.4095 11.812 39.4839 12.0815C39.5584 12.3509 39.5831 12.6331 39.5831 12.9154C39.5831 13.0052 39.5831 13.095 39.5708 13.172C39.5584 13.249 39.546 13.3388 39.5335 13.4286L39.273 15.0195H42.9695L42.3493 19.0352H38.628L38.0574 22.6148C37.9831 23.0252 38.0327 23.3333 38.2063 23.5128C38.3677 23.7052 38.6033 23.7951 38.9009 23.7951C39.211 23.7951 39.4964 23.6924 39.732 23.4871C39.9801 23.2818 40.191 23.0124 40.3771 22.6916C41.1213 22.9099 41.6671 23.2177 42.0144 23.6154C42.3617 24.0132 42.4982 24.5649 42.4362 25.2704C42.3865 25.6682 42.2749 25.9889 42.1137 26.2456C41.9523 26.5022 41.7416 26.7459 41.5058 27.0024C40.6251 27.8237 39.4219 28.2343 37.9211 28.2343C37.214 28.2343 36.5566 28.1572 35.9488 27.9904C35.3409 27.8237 34.8075 27.5671 34.3609 27.195C33.9146 26.8229 33.5547 26.361 33.3067 25.7838C33.0586 25.2064 32.9346 24.5007 32.9346 23.6539C32.9346 23.3973 32.947 23.1535 32.9717 22.9099C32.9966 22.6661 33.0337 22.4095 33.0586 22.1144L34.882 10.8626Z" fill="#17494D"/>
<path d="M51.8136 22.6382C52.5083 22.7794 53.0541 23.036 53.4634 23.4209C53.8728 23.793 54.0713 24.3062 54.0713 24.9219C54.0713 25.5635 53.7983 26.1535 53.2402 26.6924C52.9672 26.962 52.6447 27.1928 52.2973 27.3981C51.9501 27.5905 51.5905 27.7573 51.2059 27.8728C50.8214 27.9883 50.4368 28.0781 50.0646 28.1294C49.6802 28.1807 49.3328 28.2064 48.9979 28.2064C47.9932 28.2064 47.1249 28.0524 46.393 27.7573C45.6612 27.4622 45.0658 27.0518 44.5821 26.5514C44.1107 26.0382 43.751 25.448 43.5152 24.768C43.2796 24.0881 43.168 23.3696 43.168 22.6126C43.168 21.5221 43.3291 20.47 43.6641 19.4822C43.9991 18.4814 44.4703 17.6218 45.0906 16.8905C45.7108 16.1592 46.4923 15.5691 47.4101 15.1328C48.3281 14.6966 49.3824 14.4785 50.5609 14.4785C51.1686 14.4785 51.8012 14.5811 52.4462 14.7736C53.0913 14.966 53.637 15.2996 54.0713 15.7487C54.3316 16.0181 54.5301 16.3132 54.679 16.6467C54.8279 16.9803 54.9022 17.3268 54.9022 17.6859C54.9022 18.3659 54.6419 18.9048 54.1333 19.2896C53.6247 19.6745 52.992 19.9183 52.2478 20.0081C52.0866 19.4309 51.8757 19.0075 51.6027 18.7124C51.3299 18.4301 50.9577 18.2761 50.4864 18.2761C50.1515 18.2761 49.8538 18.3788 49.5684 18.5841C49.2832 18.7893 49.0352 19.0843 48.8242 19.4564C48.6133 19.8285 48.4521 20.2776 48.3281 20.7908C48.2041 21.304 48.1421 21.8684 48.1421 22.4714C48.1421 23.0103 48.2537 23.4594 48.4768 23.8315C48.7002 24.2034 49.0723 24.3832 49.5684 24.3832C50.1268 24.3832 50.5856 24.2034 50.9454 23.8571C51.3175 23.485 51.6027 23.0873 51.8136 22.6382Z" fill="#17494D"/>
<path d="M67.0338 24.5242C66.9966 24.7936 66.9717 25.0631 66.9469 25.3453C66.9222 25.6276 66.9097 25.897 66.9097 26.1665C66.9097 26.8079 66.9593 27.3339 67.0709 27.7317C66.7733 27.8215 66.4383 27.8985 66.0662 27.9755C65.6941 28.0524 65.2849 28.0781 64.8506 28.0781C64.1188 28.0781 63.5607 27.9883 63.1761 27.8087C62.7916 27.629 62.4691 27.2313 62.221 26.6284C61.7124 27.2186 61.2161 27.629 60.6953 27.8472C60.1867 28.0653 59.5417 28.1807 58.7851 28.1807C58.2641 28.1807 57.7802 28.0781 57.3336 27.86C56.8871 27.6419 56.4903 27.3339 56.1553 26.9235C55.8204 26.5129 55.5476 25.9869 55.3614 25.3582C55.1753 24.7295 55.0762 23.9983 55.0762 23.1771C55.0762 22.0352 55.2498 20.9319 55.5972 19.8798C55.9444 18.8278 56.453 17.904 57.1353 17.1087C57.8175 16.3132 58.6486 15.6717 59.6284 15.197C60.6208 14.7223 61.7496 14.4785 63.0397 14.4785C63.9452 14.4785 64.8134 14.5683 65.6692 14.7608C66.5252 14.9532 67.4432 15.3638 68.423 15.9796L67.0338 24.5242ZM63.0023 18.8278C62.8163 18.6995 62.5807 18.6354 62.2953 18.6354C61.9109 18.6354 61.576 18.7765 61.2906 19.0458C61.0054 19.3282 60.7696 19.6617 60.5835 20.0594C60.3975 20.4572 60.261 20.9062 60.1619 21.381C60.0627 21.8684 60.0129 22.3046 60.0129 22.6896C60.0129 23.2413 60.1123 23.639 60.2983 23.8956C60.4844 24.1394 60.7449 24.2677 61.0798 24.2677C61.4766 24.2677 61.762 24.1394 61.9356 23.8828C62.1092 23.6262 62.221 23.3439 62.2706 23.036L63.0023 18.8278Z" fill="#17494D"/>
<path d="M70.6312 14.9563C70.9288 14.8793 71.2265 14.828 71.5243 14.7895C71.8219 14.751 72.194 14.7382 72.6282 14.7382C73.4097 14.7382 74.0176 14.8536 74.4517 15.0974C74.8858 15.3412 75.1463 15.6619 75.233 16.0853C75.5433 15.7132 75.9898 15.3412 76.5727 14.9948C77.1557 14.6484 77.9123 14.4688 78.8552 14.4688C79.4133 14.4688 79.8846 14.5586 80.2816 14.751C80.6785 14.9434 81.0011 15.2 81.2616 15.5336C81.5096 15.8672 81.6957 16.2521 81.8197 16.6755C81.9437 17.1116 82.0058 17.5607 82.0058 18.0483C82.0058 18.446 81.9809 18.8181 81.9313 19.1772C81.8817 19.5366 81.8197 19.9085 81.7453 20.2806L81.0382 24.6171C81.0011 24.8737 80.9637 25.1175 80.939 25.3741C80.9017 25.6307 80.8895 25.8745 80.8895 26.1311C80.8895 26.3877 80.9017 26.6185 80.9142 26.8623C80.9266 27.0932 80.9762 27.3242 81.0506 27.568C80.753 27.7091 80.3932 27.8374 79.959 27.9529C79.5249 28.0683 79.0288 28.1325 78.4707 28.1325C77.4782 28.1325 76.7836 27.9529 76.3866 27.5808C75.9898 27.2087 75.7913 26.657 75.816 25.9001C75.816 25.8103 75.816 25.7077 75.816 25.605C75.816 25.5024 75.8285 25.3997 75.8409 25.3099L76.7216 19.9342C76.734 19.8444 76.7465 19.7419 76.7587 19.6391C76.7712 19.5366 76.7712 19.4338 76.7712 19.344C76.7712 19.126 76.7216 18.9592 76.6224 18.8309C76.5231 18.7026 76.337 18.6384 76.0641 18.6384C75.6673 18.6384 75.3819 18.7666 75.2207 19.0234C75.0594 19.28 74.9478 19.5621 74.8982 19.8702L73.5957 27.8117H68.5225L70.6312 14.9563Z" fill="#17494D"/>
<path d="M9.06917 23.6798C10.3964 17.3804 13.4974 11.7738 17.8141 7.45013C16.9954 7.03956 16.0775 6.80864 15.0976 6.80864H7.15893C3.69817 6.79581 0.907227 9.69533 0.907227 13.262V14.468C4.49203 16.5464 7.3698 19.7796 9.06917 23.6798Z" fill="#17494D"/>
<path d="M0.907227 18.9316V21.4719C0.907227 25.0387 3.69815 27.9254 7.14652 27.9254H8.26289C6.74958 24.2175 4.16951 21.0743 0.907227 18.9316Z" fill="#17494D"/>
<path d="M10.3716 27.9384H15.0976C18.5459 27.9384 21.3368 25.0518 21.3368 21.4852V14.1465C16.5613 17.5977 12.7284 22.396 10.3716 27.9384Z" fill="#17494D"/>
</g>
<defs>
<clipPath id="clip0_2597_29624">
<rect width="81.0984" height="35.9491" fill="white" transform="translate(0.907227)"/>
</clipPath>
</defs>
</svg>
