<svg width="26" height="26" viewBox="0 0 26 26" fill="none" xmlns="http://www.w3.org/2000/svg">
<path d="M12.9997 0.199219C5.93037 0.199219 0.199707 5.92989 0.199707 12.9992C0.199707 20.0686 5.93037 25.7992 12.9997 25.7992C20.069 25.7992 25.7997 20.0686 25.7997 12.9992C25.7997 5.92989 20.069 0.199219 12.9997 0.199219ZM18.2064 10.6846C18.2117 10.7939 18.213 10.9032 18.213 11.0099C18.213 14.3432 15.6784 18.1846 11.041 18.1846C9.67077 18.1868 8.32899 17.7933 7.17704 17.0512C7.37304 17.0752 7.57437 17.0846 7.77837 17.0846C8.95971 17.0846 10.0464 16.6832 10.909 16.0059C10.3833 15.9956 9.87393 15.8215 9.45185 15.5079C9.02977 15.1943 8.71604 14.7569 8.55437 14.2566C8.93191 14.3283 9.32084 14.3133 9.69171 14.2126C9.1211 14.0972 8.60797 13.788 8.23932 13.3374C7.87066 12.8869 7.66918 12.3227 7.66904 11.7406V11.7099C8.00904 11.8979 8.39837 12.0126 8.81171 12.0259C8.27677 11.6698 7.89809 11.1228 7.7531 10.4967C7.60811 9.87068 7.70777 9.21289 8.03171 8.65788C8.66498 9.43655 9.45472 10.0735 10.3498 10.5276C11.2449 10.9817 12.2253 11.2428 13.2277 11.2939C13.1003 10.753 13.1551 10.1851 13.3837 9.67856C13.6123 9.17202 14.0019 8.7552 14.4918 8.4929C14.9817 8.2306 15.5446 8.13752 16.0929 8.22811C16.6412 8.31871 17.1442 8.58792 17.5237 8.99388C18.0879 8.88225 18.629 8.67529 19.1237 8.38188C18.9357 8.96606 18.5419 9.46212 18.0157 9.77788C18.5155 9.71769 19.0035 9.58332 19.4637 9.37922C19.1257 9.88574 18.6999 10.3278 18.2064 10.6846Z" fill="#17494D"/>
</svg>
